<?xml version="1.0" encoding="UTF-8"?>
<svg width="10px" height="6px" viewBox="0 0 10 6" version="1.1" xmlns="http://www.w3.org/2000/svg" xmlns:xlink="http://www.w3.org/1999/xlink">
    <!-- Generator: Sketch 46 (44423) - http://www.bohemiancoding.com/sketch -->
    <title>Shape</title>
    <desc>Created with Sketch.</desc>
    <defs></defs>
    <g id="Symbols" stroke="none" stroke-width="1" fill="none" fill-rule="evenodd">
        <g id="header/sm" transform="translate(-902.000000, -23.000000)" fill-rule="nonzero" fill="#FFFFFF">
            <g id="Group-3" transform="translate(793.000000, 10.000000)">
                <path d="M118.537127,13.5791275 L118.054526,13.0965607 C117.99022,13.0321193 117.916143,13 117.832396,13 C117.748852,13 117.674809,13.0321193 117.610503,13.0965607 L113.816742,16.890118 L110.023151,13.0966621 C109.958811,13.0322207 109.884768,13.0001014 109.801122,13.0001014 C109.717443,13.0001014 109.6434,13.0322207 109.579094,13.0966621 L109.096561,13.5792627 C109.032119,13.6435689 109,13.7176123 109,13.8012915 C109,13.884903 109.032221,13.9589464 109.096561,14.0232526 L113.594714,18.5215069 C113.65902,18.5858469 113.733097,18.618 113.816742,18.618 C113.900388,18.618 113.97433,18.5858469 114.038602,18.5215069 L118.537127,14.0232526 C118.601433,13.9589126 118.633383,13.8848692 118.633383,13.8012915 C118.633383,13.7176123 118.601433,13.6435689 118.537127,13.5791275 Z" id="Shape"></path>
            </g>
        </g>
    </g>
</svg>