<?xml version="1.0" encoding="UTF-8"?>
<svg width="90px" height="31px" viewBox="0 0 90 31" version="1.1" xmlns="http://www.w3.org/2000/svg" xmlns:xlink="http://www.w3.org/1999/xlink">
    <!-- Generator: Sketch 46.1 (44463) - http://www.bohemiancoding.com/sketch -->
    <title>arrow1</title>
    <desc>Created with Sketch.</desc>
    <defs></defs>
    <g id="landing" stroke="none" stroke-width="1" fill="none" fill-rule="evenodd">
        <g id="start" transform="translate(-331.000000, -2096.000000)" fill-rule="nonzero" fill="#328AFF">
            <g id="Group-14" transform="translate(171.000000, 1866.000000)">
                <g id="arrows" transform="translate(0.000000, 14.000000)">
                    <g id="Group-23" transform="translate(0.000000, 204.000000)">
                        <path d="M245.68545,38.4260309 C233.367428,42.15606 209.146102,42.9025599 193.593865,35.5778163 C186.011033,32.0064779 179.271167,26.5576673 173.644392,20.5442347 C175.008459,19.4830407 176.372525,18.4218467 177.9071,17.3606527 C179.271167,16.2991697 179.271167,14.5305131 177.9071,13.4693191 C174.155917,10.8163341 169.722701,8.69423509 165.289484,7.45588644 C164.095926,7.1021551 162.902647,7.80961777 162.561351,9.04767743 C161.70881,12.2315484 161.367793,15.2379757 161.879597,18.5984234 C162.220613,20.897677 163.414172,24.612145 165.63078,25.67305 C166.65383,26.203647 168.358913,25.67305 168.188404,24.081259 C169.040946,23.550662 169.893488,23.1966417 170.746029,22.6663337 C176.202295,30.97902 185.368976,36.6666562 194.235409,40.2039695 C203.439825,43.9078255 231.633986,47.9152598 248.017586,39.9431882 C249.210587,38.7054176 247.561041,37.7182792 245.68545,38.4260309 Z M166.311977,18.244981 C165.800452,16.2994587 165.970961,14.3539364 166.311977,12.5852797 C168.869881,13.4696081 171.256718,14.7076677 173.643835,16.1225931 C171.768243,18.0678264 169.551635,19.4830407 167.335027,21.0748317 C166.99401,19.836772 166.482485,19.1290204 166.311977,18.244981 Z" id="arrow1" transform="translate(205.030369, 25.961970) scale(-1, 1) rotate(-727.000000) translate(-205.030369, -25.961970) "></path>
                    </g>
                </g>
            </g>
        </g>
    </g>
</svg>