<?xml version="1.0" encoding="UTF-8"?>
<svg width="36px" height="36px" viewBox="0 0 36 36" version="1.1" xmlns="http://www.w3.org/2000/svg" xmlns:xlink="http://www.w3.org/1999/xlink">
    <!-- Generator: Sketch 46 (44423) - http://www.bohemiancoding.com/sketch -->
    <title>arrow1</title>
    <desc>Created with Sketch.</desc>
    <defs></defs>
    <g id="landing" stroke="none" stroke-width="1" fill="none" fill-rule="evenodd">
        <g id="start" transform="translate(-287.000000, -1919.000000)" fill-rule="nonzero" fill="#328AFF">
            <g id="arrows" transform="translate(177.000000, 1882.000000)">
                <g id="Group-23" transform="translate(40.000000, 0.000000)">
                    <path d="M106.723598,61.126907 C99.8383934,63.8646419 94.7892435,64.2217377 87.7894732,61.0078751 C82.6255699,58.6274306 78.150187,54.9372456 74.3633246,50.8901593 C75.2813518,50.1759676 76.1993791,49.4617759 77.2321598,48.7475842 C78.150187,48.033198 78.150187,46.8428785 77.2321598,46.1286868 C74.7075848,44.3432075 71.7239962,42.9150186 68.7404076,42.0816005 C67.9371338,41.8435366 67.1340474,42.3196644 66.9043531,43.152888 C66.3305861,45.2956576 66.1010793,47.3190063 66.445527,49.5806133 C66.6750338,51.1280287 67.4783077,53.6278941 68.970102,54.3418914 C69.6586224,54.6989872 70.8061565,54.3418914 70.6914031,53.2706038 L70.6914031,53.2706038 C71.2651701,52.9135079 71.8389371,52.6752496 72.4127042,52.3183482 C76.0848132,57.9128499 82.0519904,62.1980001 88.0191675,64.5786391 C93.7568379,66.9592781 103.166617,68.9828212 107.756754,63.1502557 C108.559652,62.3172265 107.985885,60.6505847 106.723598,61.126907 Z M69.4285531,49.3427439 C69.0842928,48.0333925 69.1990463,46.724041 69.4285531,45.5337215 C71.1500417,46.1288813 72.7564019,46.9621049 74.3629496,47.9143605 C73.1006621,49.2235175 71.6088678,50.1759676 70.1170735,51.2472551 C69.8875667,50.4140315 69.5433065,49.9377092 69.4285531,49.3427439 Z" id="arrow1" transform="translate(87.205431, 54.484359) scale(-1, 1) rotate(-68.000000) translate(-87.205431, -54.484359) "></path>
                </g>
            </g>
        </g>
    </g>
</svg>