<?xml version="1.0" encoding="UTF-8"?>
<svg width="11px" height="7px" viewBox="0 0 11 7" version="1.1" xmlns="http://www.w3.org/2000/svg" xmlns:xlink="http://www.w3.org/1999/xlink">
    <!-- Generator: Sketch 45.2 (43514) - http://www.bohemiancoding.com/sketch -->
    <title>arrow-down</title>
    <desc>Created with Sketch.</desc>
    <defs></defs>
    <g id="Symbols" stroke="none" stroke-width="1" fill="none" fill-rule="evenodd">
        <g id="header" transform="translate(-984.000000, -25.000000)" fill-rule="nonzero" fill="#38404A">
            <g id="Group-3" transform="translate(862.000000, 9.000000)">
                <g id="Group-7-Copy" transform="translate(46.000000, 7.000000)">
                    <path d="M86.1864358,10.260974 L85.6854689,9.74559467 C85.6187154,9.67677151 85.5418191,9.64246826 85.4548851,9.64246826 C85.3681618,9.64246826 85.2913005,9.67677151 85.224547,9.74559467 L81.2864081,13.7970977 L77.3484446,9.745703 C77.281656,9.67687984 77.2047948,9.64257659 77.1179661,9.64257659 C77.0311024,9.64257659 76.9542411,9.67687984 76.8874876,9.745703 L76.3865909,10.2611184 C76.3196971,10.3297971 76.2863554,10.4088751 76.2863554,10.4982441 C76.2863554,10.5875409 76.3198024,10.666619 76.3865909,10.7352977 L81.0559296,15.5394141 C81.1226831,15.6081289 81.1995794,15.6424683 81.2864081,15.6424683 C81.3732367,15.6424683 81.4499927,15.6081289 81.5167111,15.5394141 L86.1864358,10.7352977 C86.2531893,10.6665828 86.2863554,10.5875048 86.2863554,10.4982441 C86.2863554,10.4088751 86.2531893,10.3297971 86.1864358,10.260974 Z" id="arrow-down"></path>
                </g>
            </g>
        </g>
    </g>
</svg>