<?xml version="1.0" encoding="UTF-8"?>
<svg width="58px" height="26px" viewBox="0 0 58 26" version="1.1" xmlns="http://www.w3.org/2000/svg" xmlns:xlink="http://www.w3.org/1999/xlink">
    <!-- Generator: Sketch 46 (44423) - http://www.bohemiancoding.com/sketch -->
    <title>arrow2</title>
    <desc>Created with Sketch.</desc>
    <defs></defs>
    <g id="landing" stroke="none" stroke-width="1" fill="none" fill-rule="evenodd">
        <g id="start" transform="translate(-272.000000, -2096.000000)" fill-rule="nonzero" fill="#328AFF">
            <g id="arrows" transform="translate(177.000000, 1882.000000)">
                <g id="Group-22" transform="translate(0.000000, 179.000000)">
                    <path d="M149.259009,29.4326607 C147.740217,26.4594628 145.286784,23.9619766 142.366221,22.4159138 C141.54841,21.9402021 140.380108,22.2969858 140.146448,23.3673371 C139.912597,24.1998325 139.562106,25.0323279 139.211807,25.7458953 C129.865204,21.3455625 118.766148,26.1026791 111.756339,32.7626422 C103.811889,40.3740287 99.8396634,52.7425317 102.994078,63.446044 C103.344759,64.8731789 105.330681,64.278345 105.097211,62.8512101 C103.578419,52.8612653 106.265513,43.4659601 112.808001,35.8545737 C119.934641,27.6485476 128.463242,26.9349801 138.276975,28.0053314 C138.043314,28.7188989 137.926484,29.4324663 137.926484,30.1460338 C137.926484,30.7406734 138.160335,31.0974571 138.627656,31.216385 C138.627656,31.4542409 138.627656,31.8110246 138.744295,32.0488804 C139.445276,33.5949433 141.197919,33.3570875 142.59969,33.1192317 C144.702633,32.8813758 146.922406,32.4056642 148.791688,31.4542409 C149.492669,31.0976515 149.609499,30.0271059 149.259009,29.4326607 Z M140.613578,30.1462281 C140.496938,30.1462281 140.379917,30.1462281 140.146448,30.1462281 C140.380108,28.7190932 141.197919,27.2919582 142.015539,25.8648233 C143.417692,26.8162466 144.585994,28.0055257 145.637465,29.4326607 C144.585994,29.7894444 143.534331,29.9083723 142.483051,30.0273002 C141.898709,30.1462281 141.197728,30.1462281 140.613578,30.1462281 Z" id="arrow2" transform="translate(125.680164, 43.236687) scale(-1, 1) rotate(210.000000) translate(-125.680164, -43.236687) "></path>
                </g>
            </g>
        </g>
    </g>
</svg>