<?xml version="1.0" encoding="UTF-8"?>
<svg width="100px" height="39px" viewBox="0 0 100 39" version="1.1" xmlns="http://www.w3.org/2000/svg" xmlns:xlink="http://www.w3.org/1999/xlink">
    <!-- Generator: Sketch 46.1 (44463) - http://www.bohemiancoding.com/sketch -->
    <title>arrow3</title>
    <desc>Created with Sketch.</desc>
    <defs></defs>
    <g id="landing" stroke="none" stroke-width="1" fill="none" fill-rule="evenodd">
        <g id="start" transform="translate(-630.000000, -2127.000000)" fill-rule="nonzero" fill="#328AFF">
            <g id="Group-14" transform="translate(171.000000, 1866.000000)">
                <g id="arrows" transform="translate(0.000000, 14.000000)">
                    <g id="Group-21" transform="translate(458.000000, 210.000000)">
                        <path d="M52.7161134,101.265146 C74.8575502,66.9894277 71.7477524,28.224524 47.430445,9.43690628 C45.6340863,8.04903463 43.6141507,9.09572455 44.9247081,10.2604648 C71.7509772,34.8826864 65.3302281,78.6359066 49.7673593,98.6028822 C49.2759003,98.1034359 48.6206216,97.770653 48.1291626,97.438142 C48.1291626,95.7742273 45.9995068,94.4428238 44.6886818,95.9406188 C41.7399277,99.2681762 40.7570097,103.427963 39.610272,107.754141 C39.2826326,109.085273 40.2655506,110.582796 41.7399277,110.582796 C46.3268785,110.582796 51.077649,109.584447 55.3369604,107.587749 C56.4836981,106.922183 56.6475178,105.091606 55.8284194,104.25992 C54.5181297,103.095452 53.6990314,102.263494 52.7161134,101.265146 Z M46.3271462,100.266525 C47.8015232,101.597657 49.1120806,103.09518 50.422638,104.592703 C48.4568019,105.258269 46.3271462,105.591052 44.1974904,105.923835 C44.6889495,103.927409 45.3442281,101.93044 46.3271462,100.266525 Z" id="arrow3" transform="translate(53.592153, 59.678665) rotate(74.000000) translate(-53.592153, -59.678665) "></path>
                    </g>
                </g>
            </g>
        </g>
    </g>
</svg>