<?xml version="1.0" encoding="UTF-8"?>
<svg width="40px" height="85px" viewBox="0 0 40 85" version="1.1" xmlns="http://www.w3.org/2000/svg" xmlns:xlink="http://www.w3.org/1999/xlink">
    <!-- Generator: Sketch 46.1 (44463) - http://www.bohemiancoding.com/sketch -->
    <title>arrow2</title>
    <desc>Created with Sketch.</desc>
    <defs></defs>
    <g id="landing" stroke="none" stroke-width="1" fill="none" fill-rule="evenodd">
        <g id="start" transform="translate(-634.000000, -1918.000000)" fill-rule="nonzero" fill="#328AFF">
            <g id="Group-14" transform="translate(171.000000, 1866.000000)">
                <g id="arrows" transform="translate(0.000000, 14.000000)">
                    <g id="Group-22" transform="translate(422.000000, 0.000000)">
                        <path d="M91.1845755,63.4454975 C89.0100678,59.1886659 85.4974015,55.6129274 81.3159292,53.399375 C80.1450404,52.7182819 78.4723422,53.2291017 78.1378025,54.7615611 C77.8029896,55.9534739 77.3011801,57.1453868 76.7996439,58.1670263 C63.4177847,51.8669156 47.0846758,58.3568595 37.4906886,68.2131488 C26.8032796,79.1927544 18.8975388,95.7610593 21.369205,111.684893 C21.8712878,113.728172 24.7146015,112.876527 24.3803352,110.833248 C23.3085437,96.0357553 29.6292802,83.5374642 38.9963904,72.6399754 C49.1998496,60.8911203 61.4105468,59.8694807 75.461212,61.4019401 C75.1266724,62.4235797 74.9594026,63.4452192 74.9594026,64.4668588 C74.9594026,65.3182251 75.2942155,65.8290449 75.9632948,65.9993182 C75.9632948,66.3398647 75.9632948,66.8506845 76.1302913,67.191231 C77.1339103,69.4047834 79.643231,69.0642369 81.6501955,68.7236904 C84.6610524,68.3831439 87.839179,67.7020508 90.5154962,66.3398647 C91.5191152,65.8293231 91.686385,64.2965856 91.1845755,63.4454975 Z M78.8066085,64.467137 C78.639612,64.467137 78.4720689,64.467137 78.1378025,64.467137 C78.4723422,62.4238579 79.643231,60.3805787 80.8138464,58.3372996 C82.8213576,59.6994857 84.4940559,61.4022183 85.9994843,63.4454975 C84.4940559,63.9563173 82.9883541,64.1265905 81.483199,64.2968638 C80.6465766,64.467137 79.6429576,64.467137 78.8066085,64.467137 Z" id="arrow2" transform="translate(56.186262, 82.979827) rotate(139.000000) translate(-56.186262, -82.979827) "></path>
                    </g>
                </g>
            </g>
        </g>
    </g>
</svg>