<?xml version="1.0" encoding="UTF-8"?>
<svg width="6px" height="9px" viewBox="0 0 6 9" version="1.1" xmlns="http://www.w3.org/2000/svg" xmlns:xlink="http://www.w3.org/1999/xlink">
    <!-- Generator: Sketch 46 (44423) - http://www.bohemiancoding.com/sketch -->
    <title>Shape</title>
    <desc>Created with Sketch.</desc>
    <defs></defs>
    <g id="web" stroke="none" stroke-width="1" fill="none" fill-rule="evenodd">
        <g id="quest" transform="translate(-181.000000, -74.000000)" fill-rule="nonzero" fill="#8996A8">
            <path d="M187.912373,76.4886255 L187.511599,76.08788 C187.458196,76.0343649 187.396679,76.0076916 187.327132,76.0076916 C187.257753,76.0076916 187.196264,76.0343649 187.142862,76.08788 L183.992351,79.2382227 L180.84198,76.0879642 C180.788549,76.0344492 180.72706,76.0077758 180.657597,76.0077758 C180.588106,76.0077758 180.526617,76.0344492 180.473214,76.0879642 L180.072497,76.4887378 C180.018982,76.5421405 179.992308,76.6036295 179.992308,76.6731205 C179.992308,76.7425554 180.019066,76.8040444 180.072497,76.8574472 L183.807968,80.5930023 C183.861371,80.6464332 183.922888,80.6731346 183.992351,80.6731346 C184.061813,80.6731346 184.123218,80.6464332 184.176593,80.5930023 L187.912373,76.8574472 C187.965775,76.8040163 187.992308,76.7425273 187.992308,76.6731205 C187.992308,76.6036295 187.965775,76.5421405 187.912373,76.4886255 Z" id="Shape" transform="translate(183.992308, 78.340413) scale(-1, 1) rotate(90.000000) translate(-183.992308, -78.340413) "></path>
        </g>
    </g>
</svg>