<?xml version="1.0" encoding="UTF-8"?>
<svg width="14px" height="11px" viewBox="0 0 14 11" version="1.1" xmlns="http://www.w3.org/2000/svg" xmlns:xlink="http://www.w3.org/1999/xlink">
    <!-- Generator: Sketch 46 (44423) - http://www.bohemiancoding.com/sketch -->
    <title>Shape</title>
    <desc>Created with Sketch.</desc>
    <defs></defs>
    <g id="web" stroke="none" stroke-width="1" fill="none" fill-rule="evenodd">
        <g id="task-vocab" transform="translate(-381.000000, -227.000000)" fill-rule="nonzero" fill="#328AFF">
            <g id="Group-6" transform="translate(362.000000, 134.000000)">
                <g id="Group-5" transform="translate(0.000000, 68.000000)">
                    <g id="Group-4">
                        <g id="Group" transform="translate(19.000000, 10.000000)">
                            <g id="Group-2">
                                <g id="Group-3">
                                    <path d="M6.54029566,24.267489 C6.54029566,24.4977841 6.40723316,24.7070028 6.19899808,24.8046569 C6.11848614,24.8427349 6.03221331,24.8611417 5.94650251,24.8611417 C5.81077034,24.8611417 5.67630275,24.8144925 5.5676889,24.7244259 L2.32220049,22.0350741 L0.593652634,22.0350741 C0.265843972,22.0353551 0,21.7693707 0,21.441562 L0,19.0763656 C0,18.7484164 0.265843972,18.4825725 0.593652634,18.4825725 L2.322341,18.4825725 L5.56782941,15.7932206 C5.7451524,15.6462477 5.99104402,15.6149141 6.19913859,15.7132707 C6.40723316,15.8109248 6.54043616,16.020284 6.54043616,16.2504386 L6.54029566,24.267489 L6.54029566,24.267489 Z M8.82174839,23.3398453 C8.80727591,23.3408289 8.79336547,23.3413909 8.7790335,23.3413909 C8.6222249,23.3413909 8.47103668,23.2794262 8.35933163,23.1675807 L8.27994376,23.0879118 C8.07170869,22.8800982 8.04726003,22.5508845 8.22261589,22.3145475 C8.66718794,21.715134 8.90183881,21.0045775 8.90183881,20.2591746 C8.90183881,19.4574274 8.6354328,18.7054205 8.13128471,18.0843685 C7.93934874,17.8483126 7.95705293,17.5054694 8.17217298,17.2904899 L8.25142034,17.211102 C8.37001035,17.092512 8.5289266,17.0278776 8.70091022,17.0381348 C8.86839755,17.0465654 9.02478462,17.1253912 9.1310098,17.255222 C9.83032558,18.1109248 10.1997251,19.1498521 10.1997251,20.2593151 C10.1997251,21.2926219 9.87304046,22.2761884 9.25479867,23.1032273 C9.15152419,23.2410672 8.99359151,23.327621 8.82174839,23.3398453 Z M11.2761683,25.1744779 C11.1688191,25.3013579 11.0135561,25.3775141 10.8473333,25.3845396 C10.8391838,25.3848206 10.8308937,25.3851016 10.8224632,25.3851016 C10.665233,25.3851016 10.5143258,25.3229964 10.4026208,25.2112913 L10.324638,25.1333086 C10.1067078,24.9155189 10.0919543,24.5671958 10.2900727,24.3314209 C11.2475044,23.1927319 11.774977,21.7466081 11.774977,20.2591746 C11.774977,18.7120245 11.2102694,17.2226238 10.1852526,16.0653875 C9.97743902,15.8304557 9.98797724,15.4748261 10.2091392,15.2528211 L10.2869814,15.1748383 C10.4024803,15.0587775 10.5525444,14.9948457 10.7246685,15.0003255 C10.8880811,15.0049624 11.0426415,15.0771842 11.1512554,15.1994275 C12.3902681,16.5944058 13.0727228,18.3915223 13.0727228,20.2591746 C13.0730038,22.0561505 12.4349502,23.8018406 11.2761683,25.1744779 Z" id="Shape"></path>
                                </g>
                            </g>
                        </g>
                    </g>
                </g>
            </g>
        </g>
    </g>
</svg>