<?xml version="1.0" encoding="UTF-8"?>
<svg width="114px" height="114px" viewBox="0 0 114 114" version="1.1" xmlns="http://www.w3.org/2000/svg" xmlns:xlink="http://www.w3.org/1999/xlink">
    <!-- Generator: Sketch 46 (44423) - http://www.bohemiancoding.com/sketch -->
    <title>feature-savings</title>
    <desc>Created with Sketch.</desc>
    <defs></defs>
    <g id="landing" stroke="none" stroke-width="1" fill="none" fill-rule="evenodd">
        <g id="start" transform="translate(-736.000000, -2442.000000)" fill-rule="nonzero">
            <g id="features" transform="translate(0.000000, 2331.000000)">
                <g id="Group-13" transform="translate(123.000000, 111.000000)">
                    <g id="feature-savings" transform="translate(613.000000, 0.000000)">
                        <path d="M101.460649,62.0212082 C108.813699,67.1303819 113.636863,75.6378711 113.636863,85.2503978 C113.636863,100.837928 100.956232,113.518559 85.3687018,113.518559 C75.8263775,113.518559 67.3734901,108.765597 62.251316,101.50355 C58.6709943,102.286177 54.9892692,102.68399 51.2815431,102.68399 C23.005582,102.68399 0,79.6784084 0,51.4024473 C0,23.123886 23.005582,0.118304021 51.2815431,0.118304021 C79.5575043,0.118304021 102.563086,23.123886 102.563086,51.4024473 C102.563086,54.982769 102.191274,58.5474901 101.460649,62.0212082 Z M109.73673,85.2503978 C109.73673,71.813141 98.8059586,60.8797694 85.3687018,60.8797694 C71.9314451,60.8797694 61.0006735,71.813141 61.0006735,85.2503978 C61.0006735,98.6876546 71.9314451,109.618426 85.3687018,109.618426 C98.8059586,109.618426 109.73673,98.6876546 109.73673,85.2503978 Z M97.8985277,59.9151366 C98.405545,57.1174415 98.6629537,54.2651446 98.6629537,51.4024473 C98.6629537,25.2741591 77.4072312,4.01843659 51.2815431,4.01843659 C25.1558551,4.01843659 3.90013257,25.2741591 3.90013257,51.4024473 C3.90013257,77.5281353 25.1558551,98.7838578 51.2815431,98.7838578 C54.2612444,98.7838578 57.2253452,98.5030483 60.1218436,97.9570297 C59.6304269,96.9845967 59.1936121,95.9835626 58.8139992,94.9513275 C56.338715,95.377742 53.8114291,95.5961495 51.2815431,95.5961495 C26.9135148,95.5961495 7.08784093,75.7704756 7.08784093,51.4024473 C7.08784093,27.0318189 26.9135148,7.20614495 51.2815431,7.20614495 C75.6495715,7.20614495 95.4752454,27.0318189 95.4752454,51.4024473 C95.4752454,53.8257296 95.2750386,56.249012 94.8824252,58.630693 C95.9172604,58.9999055 96.9234946,59.4289201 97.8985277,59.9151366 Z M91.1070969,57.5672568 C91.4165074,55.5313876 91.5751128,53.4669174 91.5751128,51.4024473 C91.5751128,29.1820919 73.4992984,11.1062775 51.2815431,11.1062775 C29.0637879,11.1062775 10.9879735,29.1820919 10.9879735,51.4024473 C10.9879735,73.6202025 29.0637879,91.6960169 51.2815431,91.6960169 C53.4448167,91.6960169 55.6054901,91.521811 57.7271622,91.1811994 C57.3163483,89.2675343 57.1005409,87.2836669 57.1005409,85.2503978 C57.1005409,69.662868 69.781172,56.9796368 85.3687018,56.9796368 C87.3343686,56.9796368 89.2532339,57.1824437 91.1070969,57.5672568 Z" id="Shape" fill="#000000"></path>
                        <path d="M85.3687018,60.8797694 C98.8059586,60.8797694 109.73673,71.813141 109.73673,85.2503978 C109.73673,98.6876546 98.8059586,109.618426 85.3687018,109.618426 C71.9314451,109.618426 61.0006735,98.6876546 61.0006735,85.2503978 C61.0006735,71.813141 71.9314451,60.8797694 85.3687018,60.8797694 Z M106.715427,85.2503978 C106.715427,73.4797977 97.1393019,63.9036722 85.3687018,63.9036722 C73.5981017,63.9036722 64.0219762,73.4797977 64.0219762,85.2503978 C64.0219762,97.0209979 73.5981017,106.597123 85.3687018,106.597123 C97.1393019,106.597123 106.715427,97.0209979 106.715427,85.2503978 Z" id="Shape" fill="#F48C6C"></path>
                        <path d="M85.3687018,63.9036722 C97.1393019,63.9036722 106.715427,73.4797977 106.715427,85.2503978 C106.715427,97.0209979 97.1393019,106.597123 85.3687018,106.597123 C73.5981017,106.597123 64.0219762,97.0209979 64.0219762,85.2503978 C64.0219762,73.4797977 73.5981017,63.9036722 85.3687018,63.9036722 Z M102.815295,85.2503978 C102.815295,75.6300708 94.9890288,67.8038048 85.3687018,67.8038048 C75.7483748,67.8038048 67.9221088,75.6300708 67.9221088,85.2503978 C67.9221088,94.8707248 75.7483748,102.696991 85.3687018,102.696991 C94.9890288,102.696991 102.815295,94.8707248 102.815295,85.2503978 Z" id="Shape" fill="#000000"></path>
                        <path d="M98.6629537,51.4024473 C98.6629537,54.2651446 98.405545,57.1174415 97.8985277,59.9151366 C96.9234946,59.4289201 95.9172604,58.9999055 94.8824252,58.630693 C95.2750386,56.249012 95.4752454,53.8257296 95.4752454,51.4024473 C95.4752454,27.0318189 75.6495715,7.20614495 51.2815431,7.20614495 C26.9135148,7.20614495 7.08784093,27.0318189 7.08784093,51.4024473 C7.08784093,75.7704756 26.9135148,95.5961495 51.2815431,95.5961495 C53.8114291,95.5961495 56.338715,95.377742 58.8139992,94.9513275 C59.1936121,95.9835626 59.6304269,96.9845967 60.1218436,97.9570297 C57.2253452,98.5030483 54.2612444,98.7838578 51.2815431,98.7838578 C25.1558551,98.7838578 3.90013257,77.5281353 3.90013257,51.4024473 C3.90013257,25.2741591 25.1558551,4.01843659 51.2815431,4.01843659 C77.4072312,4.01843659 98.6629537,25.2741591 98.6629537,51.4024473 Z" id="Shape" fill="#3DD0F2"></path>
                        <path d="M92.6203483,79.9488176 C92.6203483,81.0252542 91.7467186,81.8988839 90.670282,81.8988839 C89.5912454,81.8988839 88.7202157,81.0252542 88.7202157,79.9488176 C88.7202157,78.8281795 88.1663969,77.8375458 87.3187681,77.2291251 L87.3187681,83.5681406 C90.3712719,84.4235697 92.6203483,87.2290651 92.6203483,90.551978 C92.6203483,93.874891 90.3712719,96.6803863 87.3187681,97.5332153 L87.3187681,98.3080416 C87.3187681,99.3844782 86.4451384,100.258108 85.3687018,100.258108 C84.2922652,100.258108 83.4186355,99.3844782 83.4186355,98.3080416 L83.4186355,97.5332153 C80.3635317,96.6803863 78.1170553,93.874891 78.1170553,90.551978 C78.1170553,89.4729413 78.990685,88.6019117 80.0671216,88.6019117 C81.1435582,88.6019117 82.0171879,89.4729413 82.0171879,90.551978 C82.0171879,91.670016 82.5710067,92.6632498 83.4186355,93.2716705 L83.4186355,86.932655 C80.3635317,86.0772259 78.1170553,83.2717305 78.1170553,79.9488176 C78.1170553,76.6259046 80.3635317,73.8204093 83.4186355,72.9649802 L83.4186355,72.1927539 C83.4186355,71.1137173 84.2922652,70.2426877 85.3687018,70.2426877 C86.4451384,70.2426877 87.3187681,71.1137173 87.3187681,72.1927539 L87.3187681,72.9649802 C90.3712719,73.8204093 92.6203483,76.6259046 92.6203483,79.9488176 Z M88.7202157,90.551978 C88.7202157,89.4313399 88.1663969,88.4407062 87.3187681,87.8322856 L87.3187681,93.2716705 C88.1663969,92.6606497 88.7202157,91.670016 88.7202157,90.551978 Z M83.4186355,82.66851 L83.4186355,77.2291251 C82.5710067,77.8375458 82.0171879,78.8281795 82.0171879,79.9488176 C82.0171879,81.0694557 82.5710067,82.0600894 83.4186355,82.66851 Z" id="Shape" fill="#000000"></path>
                        <path d="M86.0057235,49.4497809 C87.0821601,49.4497809 87.9557898,50.3234106 87.9557898,51.3998472 C87.9557898,52.4788838 87.0821601,53.3499134 86.0057235,53.3499134 L80.5169369,53.3499134 C79.4405003,53.3499134 78.5668706,52.4788838 78.5668706,51.3998472 C78.5668706,50.3234106 79.4405003,49.4497809 80.5169369,49.4497809 L86.0057235,49.4497809 Z" id="Shape" fill="#000000"></path>
                        <path d="M83.0416227,33.0640239 C83.579841,33.9974556 83.2600301,35.1908962 82.3265984,35.7291145 L80.5247372,36.7691498 C80.2179267,36.9459559 79.8825153,37.0317588 79.549704,37.0317588 C78.8762811,37.0317588 78.2210589,36.6807468 77.8596466,36.0567256 C77.3214283,35.1232939 77.6412392,33.9298533 78.5746709,33.391635 L80.3765321,32.3515997 C81.3099639,31.8133814 82.5034044,32.1305922 83.0416227,33.0640239 Z" id="Shape" fill="#000000"></path>
                        <path d="M69.6173664,19.6397676 C70.5507981,20.180586 70.870609,21.3714264 70.3323907,22.3048582 L69.2897553,24.1093195 C68.928343,24.7333407 68.2731207,25.0843527 67.5996978,25.0843527 C67.2694866,25.0843527 66.9340752,24.9985497 66.6272648,24.8217437 C65.693833,24.2835254 65.3740222,23.0900849 65.9122405,22.1592532 L66.9548759,20.3547919 C67.4930942,19.4213602 68.6839347,19.1015493 69.6173664,19.6397676 Z" id="Shape" fill="#000000"></path>
                        <path d="M53.2316094,80.637841 L53.2316094,86.1240275 C53.2316094,87.2004641 52.3579797,88.0740938 51.2815431,88.0740938 C50.2051066,88.0740938 49.3314769,87.2004641 49.3314769,86.1240275 L49.3314769,80.637841 C49.3314769,79.5614044 50.2051066,78.6877747 51.2815431,78.6877747 C52.3579797,78.6877747 53.2316094,79.5614044 53.2316094,80.637841 Z" id="Shape" fill="#000000"></path>
                        <path d="M53.2316094,32.2293955 L53.2316094,51.3998472 C53.2316094,52.4788838 52.3579797,53.3499134 51.2815431,53.3499134 L42.9612603,53.3499134 C41.8848237,53.3499134 41.011194,52.4788838 41.011194,51.3998472 C41.011194,50.3234106 41.8848237,49.4497809 42.9612603,49.4497809 L49.3314769,49.4497809 L49.3314769,32.2293955 C49.3314769,31.1529589 50.2051066,30.2793292 51.2815431,30.2793292 C52.3579797,30.2793292 53.2316094,31.1529589 53.2316094,32.2293955 Z" id="Shape" fill="#000000"></path>
                        <path d="M53.2316094,16.6782669 L53.2316094,22.1644534 C53.2316094,23.24089 52.3579797,24.1145197 51.2815431,24.1145197 C50.2051066,24.1145197 49.3314769,23.24089 49.3314769,22.1644534 L49.3314769,16.6782669 C49.3314769,15.6018303 50.2051066,14.7282006 51.2815431,14.7282006 C52.3579797,14.7282006 53.2316094,15.6018303 53.2316094,16.6782669 Z" id="Shape" fill="#000000"></path>
                        <path d="M36.6508458,22.1592532 C37.1890641,23.0900849 36.8692532,24.2835254 35.9358215,24.8217437 C35.6290111,24.9985497 35.2935997,25.0843527 34.9633885,25.0843527 C34.2899656,25.0843527 33.6347433,24.7333407 33.273331,24.1093195 L32.2306956,22.3048582 C31.6924773,21.3714264 32.0122881,20.180586 32.9457199,19.6397676 C33.8765515,19.1015493 35.0699921,19.4213602 35.6082104,20.3547919 L36.6508458,22.1592532 Z" id="Shape" fill="#000000"></path>
                        <path d="M35.9358215,77.9805507 C36.8692532,78.518769 37.1890641,79.7096095 36.6508458,80.6430412 L35.6082104,82.4475025 C35.2467981,83.0741238 34.5915758,83.4225357 33.9181529,83.4225357 C33.5879417,83.4225357 33.2525303,83.3393328 32.9457199,83.1625268 C32.0122881,82.6217084 31.6924773,81.430868 32.2306956,80.4974362 L33.273331,78.6929749 C33.8115493,77.7595432 35.0023898,77.4397323 35.9358215,77.9805507 Z" id="Shape" fill="#000000"></path>
                        <path d="M23.9884154,33.391635 C24.9218471,33.9298533 25.241658,35.1232939 24.7034397,36.0567256 C24.3420274,36.6807468 23.6868052,37.0317588 23.0133823,37.0317588 C22.6805709,37.0317588 22.3451595,36.9459559 22.0383491,36.7691498 L20.2338878,35.7291145 C19.3030561,35.1908962 18.9832453,33.9974556 19.5214636,33.0640239 C20.0596819,32.1305922 21.2531224,31.8107813 22.1839541,32.3515997 L23.9884154,33.391635 Z" id="Shape" fill="#000000"></path>
                        <path d="M24.7034397,66.7455688 C25.241658,67.6790005 24.9218471,68.8724411 23.9884154,69.4106594 L22.1839541,70.4506947 C21.8771436,70.6301008 21.5417322,70.7133037 21.211521,70.7133037 C20.5380981,70.7133037 19.8828759,70.3622917 19.5214636,69.7382705 C18.9832453,68.8048388 19.3030561,67.6113982 20.2338878,67.0731799 L22.0383491,66.0331446 C22.9717808,65.4949263 24.1652214,65.8147371 24.7034397,66.7455688 Z" id="Shape" fill="#000000"></path>
                        <path d="M22.0435493,49.4497809 C23.122586,49.4497809 23.9936156,50.3234106 23.9936156,51.3998472 C23.9936156,52.4788838 23.122586,53.3499134 22.0435493,53.3499134 L16.5573628,53.3499134 C15.4809262,53.3499134 14.6072965,52.4788838 14.6072965,51.3998472 C14.6072965,50.3234106 15.4809262,49.4497809 16.5573628,49.4497809 L22.0435493,49.4497809 Z" id="Shape" fill="#000000"></path>
                    </g>
                </g>
            </g>
        </g>
    </g>
</svg>