<?xml version="1.0" encoding="UTF-8"?>
<svg width="114px" height="113px" viewBox="0 0 114 113" version="1.1" xmlns="http://www.w3.org/2000/svg" xmlns:xlink="http://www.w3.org/1999/xlink">
    <!-- Generator: Sketch 46 (44423) - http://www.bohemiancoding.com/sketch -->
    <title>house</title>
    <desc>Created with Sketch.</desc>
    <defs></defs>
    <g id="landing" stroke="none" stroke-width="1" fill="none" fill-rule="evenodd">
        <g id="start" transform="translate(-174.000000, -2443.000000)" fill-rule="nonzero">
            <g id="features" transform="translate(0.000000, 2331.000000)">
                <g id="Group-13" transform="translate(123.000000, 111.000000)">
                    <g id="Group-11" transform="translate(0.000000, 1.000000)">
                        <g id="house" transform="translate(51.000000, 0.000000)">
                            <polygon id="Shape" fill="#FF8C78" points="96.4522337 111.216393 17.1647523 111.216393 17.1647523 38.8990198 56.808493 7.38729432 96.5969173 39.0128583"></polygon>
                            <polygon id="Shape" fill="#DF7A6E" points="64.4403292 13.4533525 56.808493 7.38729432 17.1647523 38.8990198 17.1647523 111.216393 23.0641581 111.216393 23.0641581 44.8982839"></polygon>
                            <path d="M107.479917,49.8144184 L56.808493,10.0011405 L6.13684663,49.8144184 L1.76305357,44.2478736 L54.6213746,2.71636737 C55.9048864,1.70824246 57.7116557,1.70802056 58.9951676,2.71636737 L111.853489,44.2478736 L107.479917,49.8144184 Z" id="Shape" fill="#B2B2B2"></path>
                            <rect id="Rectangle-path" fill="#CCCCCC" x="47.3696656" y="77.237058" width="18.8780986" height="33.9804443"></rect>
                            <rect id="Rectangle-path" fill="#B2B2B2" x="47.3696656" y="77.237058" width="5.66329643" height="33.9804443"></rect>
                            <circle id="Oval" fill="#C4DF64" cx="11.5012339" cy="103.666218" r="7.55128382"></circle>
                            <path d="M14.3329931,108.384634 C10.162689,108.384634 6.78170927,105.003876 6.78170927,100.83335 C6.78170927,99.4754989 7.14186483,98.2024167 7.76919679,97.1013126 C5.48865538,98.4008018 3.9499501,100.852434 3.9499501,103.664887 C3.9499501,107.835191 7.33070795,111.216171 11.5012339,111.216171 C14.3139091,111.216171 16.7653191,109.677466 18.0648083,107.396924 C16.9639261,108.0247 15.6908439,108.384634 14.3329931,108.384634 Z" id="Shape" fill="#96CA63"></path>
                            <circle id="Oval" fill="#C4DF64" cx="32.2673199" cy="103.666218" r="7.55128382"></circle>
                            <path d="M35.0988571,108.384634 C30.9285531,108.384634 27.5475733,105.003876 27.5475733,100.83335 C27.5475733,99.4754989 27.9077289,98.2024167 28.5350609,97.1013126 C26.2545194,98.4008018 24.7158142,100.852434 24.7158142,103.664887 C24.7158142,107.835191 28.096572,111.216171 32.267098,111.216171 C35.0797731,111.216171 37.5311832,109.677466 38.8306724,107.396924 C37.7297902,108.0247 36.456708,108.384634 35.0988571,108.384634 Z" id="Shape" fill="#96CA63"></path>
                            <circle id="Oval" fill="#C4DF64" cx="81.3501099" cy="103.666218" r="7.55128382"></circle>
                            <path d="M84.1816472,108.384634 C80.0113431,108.384634 76.6303634,105.003876 76.6303634,100.83335 C76.6303634,99.4754989 76.9905189,98.2024167 77.6178509,97.1013126 C75.3373095,98.4008018 73.7986042,100.852434 73.7986042,103.664887 C73.7986042,107.835191 77.1793621,111.216171 81.349888,111.216171 C84.1625632,111.216171 86.6139732,109.677466 87.9134624,107.396924 C86.8125802,108.0247 85.539498,108.384634 84.1816472,108.384634 Z" id="Shape" fill="#96CA63"></path>
                            <circle id="Oval" fill="#C4DF64" cx="102.115974" cy="103.666218" r="7.55128382"></circle>
                            <path d="M104.947511,108.384634 C100.777207,108.384634 97.3962274,105.003876 97.3962274,100.83335 C97.3962274,99.4754989 97.756383,98.2024167 98.383715,97.1013126 C96.1031735,98.4008018 94.5644683,100.852434 94.5644683,103.664887 C94.5644683,107.835191 97.9452261,111.216171 102.115752,111.216171 C104.928427,111.216171 107.379837,109.677466 108.679326,107.396924 C107.578222,108.0247 106.30514,108.384634 104.947511,108.384634 Z" id="Shape" fill="#96CA63"></path>
                            <g id="Group" transform="translate(24.631711, 48.819608)" fill="#6DDAE1">
                                <rect id="Rectangle-path" x="0.0843247774" y="0.100302104" width="22.6536295" height="18.8780986"></rect>
                                <rect id="Rectangle-path" x="41.6160529" y="0.100302104" width="22.6536295" height="18.8780986"></rect>
                                <polygon id="Shape" points="59.2352713 0.0994144744 51.0548803 0.0994144744 41.615831 9.53846377 41.615831 17.7188548"></polygon>
                                <polygon id="Shape" points="46.3353556 18.9772912 54.2010821 18.9772912 64.2694605 8.90913464 64.2694605 1.04318626"></polygon>
                            </g>
                            <g id="Group" transform="translate(24.631711, 48.819608)" fill="#4FC4D3">
                                <polygon id="Shape" points="59.2352713 0.0994144744 41.615831 17.7188548 41.615831 18.9772912 46.3353556 18.9772912 64.2694605 1.04318626 64.2694605 0.0994144744"></polygon>
                                <polygon id="Shape" points="41.615831 0.0994144744 41.615831 9.53846377 51.0548803 0.0994144744"></polygon>
                                <polygon id="Shape" points="54.2010821 18.9772912 64.2694605 18.9772912 64.2694605 8.90913464"></polygon>
                                <polygon id="Shape" points="17.7037651 0.0994144744 0.0841028701 17.7188548 0.0841028701 18.9772912 4.80362752 18.9772912 22.7377324 1.04318626 22.7377324 0.0994144744"></polygon>
                                <polygon id="Shape" points="0.0841028701 0.0994144744 0.0841028701 9.53846377 9.52315216 0.0994144744"></polygon>
                                <polygon id="Shape" points="12.669354 18.9772912 22.7377324 18.9772912 22.7377324 8.90913464"></polygon>
                            </g>
                            <rect id="Rectangle-path" fill="#6DDAE1" x="49.2574311" y="24.3785151" width="15.1023457" height="15.1023457"></rect>
                            <path d="M24.7158142,47.1490897 C23.7383125,47.1490897 22.9461034,47.9415207 22.9461034,48.9188005 L22.9461034,67.7968991 C22.9461034,68.7744008 23.7385344,69.5666099 24.7158142,69.5666099 L47.3694437,69.5666099 C48.3469454,69.5666099 49.1391545,68.7741789 49.1391545,67.7968991 L49.1391545,48.9188005 C49.1391545,47.9412988 48.3467235,47.1490897 47.3694437,47.1490897 L24.7158142,47.1490897 Z M26.4857469,50.6887332 L34.2729181,50.6887332 L34.2729181,66.0271883 L26.4857469,66.0271883 L26.4857469,50.6887332 Z M45.5997329,66.0271883 L37.8125616,66.0271883 L37.8125616,50.6887332 L45.5997329,50.6887332 L45.5997329,66.0271883 Z" id="Shape" fill="#000000"></path>
                            <path d="M64.4776096,48.9190224 L64.4776096,67.797121 C64.4776096,68.7746227 65.2698187,69.5668318 66.2473204,69.5668318 L88.9009499,69.5668318 C89.8786735,69.5668318 90.6706607,68.7744008 90.6706607,67.797121 L90.6706607,48.9190224 C90.6706607,47.9415207 89.8784516,47.1493117 88.9009499,47.1493117 L66.2475423,47.1493117 C65.2698187,47.1490897 64.4776096,47.9415207 64.4776096,48.9190224 Z M87.1312391,66.0271883 L79.3440679,66.0271883 L79.3440679,50.6887332 L87.1312391,50.6887332 L87.1312391,66.0271883 Z M68.0172531,50.6887332 L75.8044244,50.6887332 L75.8044244,66.0271883 L68.0172531,66.0271883 L68.0172531,50.6887332 Z" id="Shape" fill="#000000"></path>
                            <path d="M64.3597768,22.6076947 L49.2574311,22.6076947 C48.2799294,22.6076947 47.4877203,23.4001257 47.4877203,24.3774055 L47.4877203,39.4797512 C47.4877203,40.4572529 48.2801513,41.249462 49.2574311,41.249462 L64.3597768,41.249462 C65.3375004,41.249462 66.1294876,40.457031 66.1294876,39.4797512 L66.1294876,24.3774055 C66.1294876,23.4001257 65.3370566,22.6076947 64.3597768,22.6076947 Z M62.5898441,30.1589785 L58.5782038,30.1589785 L58.5782038,26.1473382 L62.5898441,26.1473382 L62.5898441,30.1589785 Z M55.0387822,26.1473382 L55.0387822,30.1589785 L51.0271419,30.1589785 L51.0271419,26.1473382 L55.0387822,26.1473382 Z M51.0271419,33.698622 L55.0387822,33.698622 L55.0387822,37.7102624 L51.0271419,37.7102624 L51.0271419,33.698622 Z M58.5784257,37.7102624 L58.5784257,33.698622 L62.590066,33.698622 L62.590066,37.7102624 L58.5784257,37.7102624 Z" id="Shape" fill="#000000"></path>
                            <path d="M53.032962,90.5685834 C52.0554603,90.5685834 51.2632513,91.3610144 51.2632513,92.3382941 L51.2632513,94.2260596 C51.2632513,95.2035613 52.0556823,95.9957704 53.032962,95.9957704 C54.0104637,95.9957704 54.8026728,95.2033394 54.8026728,94.2260596 L54.8026728,92.3382941 C54.8026728,91.3610144 54.0102418,90.5685834 53.032962,90.5685834 Z" id="Shape" fill="#000000"></path>
                            <path d="M111.554801,109.446682 L109.418944,109.446682 C110.680487,107.856494 111.436747,105.848011 111.436747,103.665331 C111.436747,98.5257356 107.255347,94.3443362 102.115752,94.3443362 C100.72639,94.3443362 99.4080391,94.6523436 98.2221664,95.1997889 L98.2221664,44.7913246 L106.38658,51.2062211 C107.145281,51.8022641 108.276121,51.6662349 108.87172,50.9079777 L113.245513,45.3414328 C113.841112,44.5831755 113.704639,43.4516702 112.94727,42.8562929 L94.8662622,28.649565 C94.0977972,28.0457552 92.9851539,28.1791215 92.3811223,28.9478085 C91.7773125,29.7162735 91.9109007,30.8289167 92.6793657,31.4329484 L109.369014,44.546117 L107.181896,47.3295004 L57.9020522,8.60955977 C57.2600744,8.10538637 56.3569116,8.10538637 55.7149338,8.60955977 L6.43509005,47.3295004 L4.24797162,44.546117 L55.71449,4.1079481 C56.358465,3.60199944 57.2582991,3.60199944 57.9018303,4.1079481 L85.9194033,26.1218189 C86.6874245,26.7254068 87.8005116,26.5920405 88.4045433,25.8235755 C89.0083531,25.0551104 88.8747649,23.9424672 88.1062999,23.3384355 L60.0887268,1.32478663 C58.1570237,-0.192615544 55.4597404,-0.192615544 53.5278153,1.32478663 L0.669494351,42.8562929 C-0.0878752943,43.4516702 -0.224348289,44.5833974 0.371250928,45.3414328 L4.74504399,50.9079777 C5.34885377,51.6764427 6.46149702,51.809809 7.23018394,51.2062211 L15.3945977,44.7913246 L15.3945977,81.0117013 C15.3945977,81.989203 16.1870287,82.7814121 17.1643084,82.7814121 C18.1415882,82.7814121 18.9340192,81.9889811 18.9340192,81.0117013 L18.9340192,42.0101603 L56.8082711,12.2517244 L94.682301,42.0101603 L94.682301,97.9232573 C94.682301,97.9632006 94.6856297,98.0022563 94.6882925,98.0415339 C93.5008665,99.6057585 92.7945356,101.554327 92.7945356,103.665331 C92.7945356,105.848011 93.5507957,107.856494 94.8123387,109.446682 L88.6530795,109.446682 C89.9146225,107.856494 90.6708826,105.848011 90.6708826,103.665331 C90.6708826,98.5257356 86.4894832,94.3443362 81.349888,94.3443362 C76.2102928,94.3443362 72.0288934,98.5257356 72.0288934,103.665331 C72.0288934,105.848011 72.7851535,107.856494 74.0466966,109.446682 L68.0172531,109.446682 L68.0172531,77.2359484 C68.0172531,76.2584467 67.225044,75.4662376 66.2475423,75.4662376 L47.3694437,75.4662376 C46.391942,75.4662376 45.5997329,76.2586686 45.5997329,77.2359484 L45.5997329,109.44646 L39.5702894,109.44646 C40.8318325,107.856272 41.5880926,105.847789 41.5880926,103.665109 C41.5880926,98.5255137 37.4066932,94.3441143 32.267098,94.3441143 C27.1275028,94.3441143 22.9461034,98.5255137 22.9461034,103.665109 C22.9461034,105.847789 23.7023635,107.856272 24.9639065,109.44646 L18.8044254,109.44646 C20.0659684,107.856272 20.8222285,105.847789 20.8222285,103.665109 C20.8222285,101.545672 20.1099061,99.5900031 18.9136038,98.0226718 C18.9258087,97.9385689 18.934463,97.8531346 18.934463,97.7657031 L18.934463,90.4505287 C18.934463,89.473027 18.142032,88.6808179 17.1647523,88.6808179 C16.1874725,88.6808179 15.3950415,89.4732489 15.3950415,90.4505287 L15.3950415,95.199567 C14.2091688,94.6521217 12.8908175,94.3441143 11.5014558,94.3441143 C6.36186064,94.3441143 2.18046122,98.5255137 2.18046122,103.665109 C2.18046122,105.847789 2.93672133,107.856272 4.19826438,109.44646 L2.06240653,109.44646 C1.08490483,109.44646 0.292695741,110.238891 0.292695741,111.216171 C0.292695741,112.193673 1.08512674,112.985882 2.06240653,112.985882 L111.554801,112.985882 C112.532525,112.985882 113.324512,112.193451 113.324512,111.216171 C113.324512,110.239113 112.532081,109.446682 111.554801,109.446682 Z M96.334401,103.665109 C96.334401,100.47741 98.9278317,97.8837578 102.115752,97.8837578 C105.303672,97.8837578 107.897103,100.47741 107.897103,103.665109 C107.897103,106.852807 105.303672,109.44646 102.115752,109.44646 C98.9276098,109.446682 96.334401,106.853029 96.334401,103.665109 Z M75.5685369,103.665109 C75.5685369,100.47741 78.1619676,97.8837578 81.349888,97.8837578 C84.5378084,97.8837578 87.1312391,100.47741 87.1312391,103.665109 C87.1312391,106.852807 84.5378084,109.44646 81.349888,109.44646 C78.1619676,109.446682 75.5685369,106.853029 75.5685369,103.665109 Z M26.4857469,103.665109 C26.4857469,100.47741 29.0793995,97.8837578 32.267098,97.8837578 C35.4547965,97.8837578 38.0484491,100.47741 38.0484491,103.665109 C38.0484491,106.852807 35.4547965,109.44646 32.267098,109.44646 C29.0793995,109.446682 26.4857469,106.853029 26.4857469,103.665109 Z M5.7198828,103.665109 C5.7198828,100.47741 8.31353542,97.8837578 11.5012339,97.8837578 C14.6889324,97.8837578 17.282585,100.47741 17.282585,103.665109 C17.282585,106.852807 14.6889324,109.44646 11.5012339,109.44646 C8.31353542,109.44646 5.7198828,106.853029 5.7198828,103.665109 Z M49.1393764,109.446682 L49.1393764,79.0058811 L64.4778315,79.0058811 L64.4778315,109.446682 L49.1393764,109.446682 Z" id="Shape" fill="#000000"></path>
                        </g>
                    </g>
                </g>
            </g>
        </g>
    </g>
</svg>