<?xml version="1.0" encoding="UTF-8"?>
<svg width="73px" height="114px" viewBox="0 0 73 114" version="1.1" xmlns="http://www.w3.org/2000/svg" xmlns:xlink="http://www.w3.org/1999/xlink">
    <!-- Generator: Sketch 46 (44423) - http://www.bohemiancoding.com/sketch -->
    <title>feature-vr</title>
    <desc>Created with Sketch.</desc>
    <defs></defs>
    <g id="landing" stroke="none" stroke-width="1" fill="none" fill-rule="evenodd">
        <g id="start" transform="translate(-475.000000, -2442.000000)" fill-rule="nonzero">
            <g id="features" transform="translate(0.000000, 2331.000000)">
                <g id="Group-13" transform="translate(123.000000, 111.000000)">
                    <g id="Group-5" transform="translate(281.000000, 0.000000)">
                        <g id="feature-vr" transform="translate(71.000000, 0.000000)">
                            <path d="M3.44394868,83.1198839 L3.44394868,34.8836733 C3.44394868,16.648869 18.2791116,1.8137061 36.5139159,1.8137061 C54.7487202,1.8137061 69.5838831,16.648869 69.5838831,34.8836733 L69.5838831,83.1196612 L3.44394868,83.1196612 L3.44394868,83.1198839 Z" id="Shape" fill="#F08C46"></path>
                            <path d="M49.8350595,88.1179288 L49.8350595,88.1179288 L36.6350374,100.711675 L23.4332342,88.0335445 L23.1912137,88.1174835 C13.2565751,91.599728 6.13244624,101.059232 6.13244624,112.182821 L6.13244624,112.182821 L66.8964988,112.182821 L66.8964988,112.182821 C66.8962761,101.058341 59.7705887,91.599728 49.8350595,88.1179288 Z" id="Shape" fill="#FFD782"></path>
                            <path d="M43.807704,86.8040718 L43.807704,73.5287941 L29.2207957,73.5287941 L29.2207957,86.8042944 C27.2153881,86.9922109 25.2763301,87.4083436 23.4330115,88.0335445 C23.7153316,95.0828631 29.5164748,100.711675 36.6348148,100.711675 C43.7248782,100.711675 49.509768,95.1278383 49.8348368,88.1179288 C47.9200477,87.446862 45.9001678,87.0006716 43.807704,86.8040718 Z" id="Shape" fill="#F0BB9A"></path>
                            <g id="Group" transform="translate(1.781199, 40.522282)" fill="#D9A382">
                                <path d="M27.4395965,45.8360446 C29.7869944,46.3663967 32.22746,46.6480488 34.733162,46.6480488 C37.2386413,46.6480488 39.6793295,46.3663967 42.0265048,45.8360446 L42.0265048,33.006512 L27.4395965,33.006512 L27.4395965,45.8360446 L27.4395965,45.8360446 Z" id="Shape"></path>
                                <path d="M57.5296174,1.52114413 C72.7439532,-5.21802309 72.8864491,15.2535221 60.2557428,17.4753455 L57.5296174,1.52114413 Z" id="Shape"></path>
                                <path d="M11.9364839,1.52114413 C-3.27785185,-5.21802309 -3.42034779,15.2535221 9.21035847,17.4753455 L11.9364839,1.52114413 Z" id="Shape"></path>
                            </g>
                            <path d="M27.5121804,10.6827423 C17.693765,14.3362045 10.6987731,23.7925911 10.6987731,34.8836733 L10.6987731,54.1003637 C10.6987731,68.3575274 22.2567521,79.9155065 36.5139159,79.9155065 L36.5139159,79.9155065 C50.7710797,79.9155065 62.3290587,68.3575274 62.3290587,54.1003637 L62.3290587,34.8836733 C62.3290587,30.7256864 61.3445008,26.7983648 59.5982577,23.3192374 C40.6650007,21.0920705 31.0008817,13.9211851 27.5121804,10.6827423 Z" id="Shape" fill="#F0BB9A"></path>
                            <path d="M57.7235455,20.730487 L15.3047316,20.730487 C11.160549,20.730487 7.8009846,24.0900514 7.8009846,28.234234 L7.8009846,50.4938806 C7.8009846,54.6380632 11.160549,57.9976275 15.3047316,57.9976275 L57.7235455,57.9976275 C61.8677281,57.9976275 65.2272925,54.6380632 65.2272925,50.4938806 L65.2272925,28.2344567 C65.2270698,24.0900514 61.8677281,20.730487 57.7235455,20.730487 Z" id="Shape" fill="#5B5D6E"></path>
                            <path d="M54.2110207,27.9855341 L18.8170338,27.9855341 C16.7397102,27.9855341 15.055809,29.6694353 15.055809,31.7467588 L15.055809,46.9815784 C15.055809,49.0589019 16.7397102,50.7428031 18.8170338,50.7428031 L54.2110207,50.7428031 C56.2883442,50.7428031 57.9722454,49.0589019 57.9722454,46.9815784 L57.9722454,31.7465362 C57.9722454,29.6694353 56.2883442,27.9855341 54.2110207,27.9855341 Z" id="Shape" fill="#C7CFE2"></path>
                            <path d="M36.5143612,63.0012388 C33.6675595,63.0012388 31.3597933,65.4938044 31.3597933,68.5683769 C31.3597933,68.9522253 31.3958626,69.3269451 31.4642161,69.6887512 L36.5143612,70.9910305 L41.5645063,69.6887512 C41.6328598,69.3269451 41.6689291,68.9522253 41.6689291,68.5683769 C41.6687064,65.4940271 39.3609402,63.0012388 36.5143612,63.0012388 Z" id="Shape" fill="#2A2A33"></path>
                            <path d="M36.5143612,74.1357377 C39.0055909,74.1357377 41.0842504,72.2265148 41.5645063,69.6887512 C40.0362373,69.3113596 38.3236143,69.0996196 36.5143612,69.0996196 C34.7053307,69.0996196 32.9927077,69.311137 31.4642161,69.6887512 C31.9442493,72.2265148 34.0226861,74.1357377 36.5143612,74.1357377 Z" id="Shape" fill="#FF6465"></path>
                            <path d="M18.8170338,52.5562866 L54.210798,52.5562866 C57.2849252,52.5562866 59.7859515,50.0552602 59.7859515,46.9813557 L59.7859515,31.7463135 C59.7859515,28.672409 57.2849252,26.1716053 54.2110207,26.1716053 L47.716323,26.1716053 C46.7143985,26.1716053 45.9026169,26.9836095 45.9026169,27.9853114 C45.9026169,28.9870133 46.7143985,29.7990175 47.716323,29.7990175 L54.2110207,29.7990175 C55.2846385,29.7990175 56.1585393,30.6724731 56.1585393,31.7463135 L56.1585393,46.9813557 C56.1585393,48.0549735 55.2848611,48.9288744 54.210798,48.9288744 L18.8170338,48.9288744 C17.7434159,48.9288744 16.8695151,48.0551962 16.8695151,46.9813557 L16.8695151,31.7465362 C16.8695151,30.6729184 17.7429706,29.7990175 18.8170338,29.7990175 L40.6413998,29.7990175 C41.6433243,29.7990175 42.4551059,28.9870133 42.4551059,27.9853114 C42.4551059,26.9836095 41.6433243,26.1716053 40.6413998,26.1716053 L18.8170338,26.1716053 C15.7431292,26.1716053 13.2421029,28.672409 13.2421029,31.7465362 L13.2421029,46.9813557 C13.2423255,50.0552602 15.7429066,52.5562866 18.8170338,52.5562866 Z" id="Shape" fill="#000000"></path>
                            <path d="M68.7097596,112.183043 C68.7097596,100.595897 61.3656526,90.2371106 50.4348783,86.4066417 C50.434433,86.4066417 50.4342104,86.4066417 50.4342104,86.4066417 C48.8778876,85.8611494 47.2650117,85.4581531 45.6216328,85.2029963 L45.6216328,84.9338126 L69.5845511,84.9338126 C70.5864756,84.9338126 71.3982571,84.1218084 71.3982571,83.1201065 L71.3982571,53.2845744 C72.5382246,51.1932239 73.0732524,48.8634153 72.9345415,46.6814463 C72.8203221,44.8844389 72.2792828,43.3203234 71.3982571,42.0725933 L71.3982571,34.8836733 C71.3982571,24.4514122 66.7682524,14.6450199 58.695635,7.97865922 C57.9239304,7.3409899 56.7804005,7.4498657 56.1420633,8.22246086 C55.5041713,8.99461072 55.6132697,10.137918 56.3858649,10.7760326 C60.4153828,14.1035354 63.4863929,18.3040484 65.4178808,22.9874891 C63.7382099,20.5325513 60.9163451,18.9174489 57.7235455,18.9174489 L46.9165646,18.9174489 C36.8521211,15.9236983 31.21752,11.6481522 28.7463288,9.35419031 C28.2440306,8.88796142 27.521977,8.74457488 26.8798547,8.98347822 C21.6776397,10.9194191 17.0990671,14.4689038 13.8949124,19.0240982 C11.2932483,19.4206377 9.0431484,20.8974745 7.61529458,22.9803643 C12.306528,11.6330121 23.4922364,3.62763484 36.5143612,3.62763484 C41.4320296,3.62763484 46.1430788,4.74400145 50.5170361,6.94578633 C51.4120887,7.39620708 52.5024053,7.03595954 52.9526034,6.14112958 C53.4028015,5.24629963 53.0427766,4.15598306 52.1479467,3.70578496 C47.2634531,1.2466168 42.0033492,0 36.5143612,0 C17.2794136,0 1.63068788,15.6487257 1.63068788,34.8836733 L1.63068788,42.0723707 C0.749662218,43.3201007 0.208400308,44.8846616 0.0944035582,46.6816689 C-0.0440846805,48.863638 0.490497733,51.1934465 1.63068788,53.2850197 L1.63068788,83.1198839 C1.63068788,84.1215858 2.44269207,84.93359 3.44439398,84.93359 L27.4070896,84.93359 L27.4070896,85.202551 C25.8512121,85.4432356 24.3245017,85.8161742 22.8505594,86.3160232 C22.8487782,86.3164685 22.8474423,86.3175817 22.8456611,86.318027 C22.8434346,86.318695 22.8409854,86.3191403 22.8387589,86.3200309 L22.5911723,86.4059738 C11.6617339,90.2371106 4.31851749,100.595897 4.31851749,112.183043 C4.31851749,113.184745 5.13052168,113.99675 6.13222359,113.99675 L66.8962761,113.99675 C67.897978,113.99675 68.7097596,113.184745 68.7097596,112.183043 Z M67.7706223,34.8836733 L67.7706223,39.3480265 C67.6958119,39.3219764 67.0407759,39.1576608 67.0407759,39.1373997 L67.0407759,28.234234 C67.0407759,28.2077387 67.0389947,28.181466 67.0387721,28.1551933 C67.5203638,30.3427286 67.7706223,32.5963909 67.7706223,34.8836733 Z M66.8751244,52.2352254 C66.8769056,52.2260968 66.8782415,52.2171908 66.8800227,52.2080621 C66.9875626,51.6438673 67.0407759,51.0680946 67.0407759,50.4934353 L67.0407759,42.9683139 C68.5267414,43.7043945 69.2133937,45.3288481 69.3138088,46.911221 C69.4487346,49.0344104 68.7493913,51.0295762 67.4831813,52.7172625 C67.1541047,53.1360669 66.792076,53.5263722 66.4006575,53.8808309 C66.6072766,53.3538185 66.7671392,52.8038733 66.8751244,52.2352254 Z M63.7119373,59.4693434 C64.6737848,59.195484 65.6080238,58.8098544 66.4819247,58.3238096 C66.8604295,58.1134055 67.2278018,57.8831855 67.5818152,57.6338176 C67.606752,57.6164509 67.7706223,57.5236059 67.7706223,57.4982238 L67.7706223,81.3064004 L45.6214101,81.3064004 L45.6214101,80.1891432 C49.1303726,78.965014 52.3837329,77.0339715 55.1791024,74.4706031 C59.5430405,70.4691391 62.4755623,65.2310775 63.6115221,59.4987332 C63.6453649,59.4891592 63.6785398,59.4786947 63.7119373,59.4693434 Z M27.1423589,12.7823308 C29.0901002,14.4533184 32.2236749,16.7325854 36.7799825,18.9170036 L18.6006181,18.9170036 C20.9604844,16.2786022 23.8938968,14.1652094 27.1423589,12.7823308 Z M9.61469069,40.6999567 L9.61469069,28.234234 C9.61469069,25.1952855 12.0097357,22.7047237 15.0115017,22.5517632 C15.1087997,22.5468649 15.2060977,22.5441931 15.3045089,22.5441931 C15.3045089,22.5441931 46.6502753,22.5441931 46.654951,22.5441931 L57.7235455,22.5441931 C60.8611279,22.5441931 63.4133637,25.0966516 63.4133637,28.234234 L63.4133637,40.6999567 C63.4133637,42.5728877 63.4133637,44.4460413 63.4133637,46.3189722 C63.4133637,49.0631323 63.8980726,52.3233948 61.7777776,54.4777552 C59.6354402,56.6550486 56.3357687,56.1834761 53.5693436,56.1834761 C49.1786876,56.1834761 44.7882542,56.1834761 40.3975981,56.1834761 C35.3817411,56.1834761 30.3663295,56.1834761 25.3504725,56.1834761 C22.2066559,56.1834761 19.0628393,56.1834761 15.9192453,56.1834761 C15.7141847,56.1834761 15.5091242,56.1834761 15.3042863,56.1834761 C12.8644887,56.1834761 10.6085999,54.512266 9.87674963,52.1893596 C9.23017431,50.1371954 9.61446804,47.4484752 9.61446804,45.31304 C9.61469069,43.7754198 9.61469069,42.2377996 9.61469069,40.6999567 Z M5.25810007,34.8836733 C5.25810007,32.5743485 5.51192096,30.3235807 5.98972765,28.1554159 C5.989505,28.1816886 5.9877238,28.2077387 5.9877238,28.2340114 L5.9877238,39.1373997 C5.74280891,39.1972925 5.49678077,39.2654234 5.25810007,39.3478038 L5.25810007,34.8836733 Z M4.87803669,51.7367123 C4.03018587,50.2859255 3.6069284,48.5975713 3.71402301,46.9114436 C3.81354751,45.3415392 4.51333615,43.6986056 5.9872785,42.9680912 C5.9872785,44.8670722 5.83543127,46.7633815 5.84968086,48.6625851 C5.85680566,49.6059527 5.89933179,50.5515469 6.02980463,51.4866765 C6.1081774,52.0479769 6.19812796,53.4916388 6.62761962,53.8808309 C5.94208057,53.2600829 5.34515618,52.5360254 4.87803669,51.7367123 Z M19.597867,75.9443228 C21.9920214,77.8010004 24.6204035,79.2257371 27.4066443,80.1980492 L27.4066443,81.3064004 L5.25765477,81.3064004 L5.25765477,57.4984465 C6.13890308,58.1447991 7.10832075,58.6704755 8.14542399,59.0741398 C8.52904977,59.2235379 8.9204683,59.3571278 9.31656248,59.469566 C9.34995996,59.47914 9.38291215,59.4896045 9.41653228,59.4987332 C10.194471,63.4135864 11.8180341,67.1293906 14.1874744,70.3751809 C14.7779419,71.1842906 15.9127885,71.3612973 16.7216755,70.7708297 C17.5307853,70.1803622 17.707792,69.0455156 17.1173244,68.2366285 C15.215449,65.6309568 13.8659679,62.6770605 13.139016,59.5599619 C13.1465861,59.5924688 13.5408991,59.6396706 13.5798628,59.647018 C14.1496239,59.7521088 14.7247286,59.8115563 15.3042863,59.8115563 L57.7231002,59.8115563 C58.4451538,59.8115563 59.186578,59.727172 59.8897064,59.5597392 C58.8016163,64.2371684 56.3233003,68.4998007 52.7272817,71.7970231 C48.7627776,75.4322281 43.5741443,77.659395 38.2096175,78.0405717 C37.6454227,78.0806486 37.079224,78.1022457 36.5136932,78.1022457 C31.2081687,78.1022457 26.0128559,76.3297298 21.8210262,73.0781507 C21.0295058,72.4640822 19.8902063,72.6083594 19.2763605,73.3998798 C18.6625147,74.1914002 18.8065692,75.3302544 19.597867,75.9443228 Z M29.3900096,88.6099851 C30.3220221,88.5227064 31.0345018,87.7403146 31.0345018,86.8042944 L31.0345018,81.1875054 C31.0376189,81.612544 35.7170519,81.7209745 36.295719,81.7245369 C36.3687482,81.7249822 36.4411094,81.7289899 36.5141385,81.7289899 C38.3672537,81.7289899 40.1802918,81.502555 42.002236,81.1866148 C41.9652761,81.8245067 41.9939979,82.4777615 41.9939979,83.1196612 L41.9939979,86.8038491 C41.9939979,87.7396467 42.7062549,88.5220384 43.6382674,88.6095398 C45.0779217,88.744911 46.4975375,89.0098644 47.8750724,89.399279 C47.5397617,91.4091397 46.6558415,93.3150228 45.33909,94.8702324 C43.1889599,97.4093319 39.9616496,98.8979691 36.6354827,98.8979691 C32.3891038,98.8979691 28.4094595,96.4724211 26.476413,92.6931617 C26.3405966,92.4273177 25.1309397,89.4026188 25.3854285,89.3335973 C26.6877078,88.9802519 28.0293961,88.7377862 29.3900096,88.6099851 Z M8.01539645,110.369337 C8.67822521,101.731412 14.0354045,94.1158945 21.9214413,90.5746479 C22.9102296,95.3731985 26.3448269,99.5563449 30.8922285,101.401667 C32.705044,102.13708 34.6788354,102.525604 36.6348148,102.525604 C41.7288219,102.525604 46.6890164,99.7758777 49.3908729,95.4575828 C50.3064093,93.9943277 50.9658983,92.3645304 51.3272591,90.6768442 C59.0941783,94.2623982 64.3562861,101.81446 65.0128806,110.369115 L8.01539645,110.369115 L8.01539645,110.369337 Z" id="Shape" fill="#000000"></path>
                            <path d="M29.6821263,70.0269564 C30.3315961,73.4586593 33.2046704,75.9494438 36.5139159,75.9494438 C39.8229387,75.9494438 42.6960131,73.4591046 43.3457055,70.0276244 C43.3457055,70.0274017 43.3459281,70.0269564 43.3459281,70.0265111 C43.4361013,69.549595 43.4819672,69.0590973 43.4819672,68.5688222 C43.4819672,64.4990047 40.3561852,61.187978 36.5139159,61.187978 C32.6716465,61.187978 29.5456419,64.4990047 29.5456419,68.5688222 C29.5456419,69.0582067 29.5912852,69.5487044 29.6814584,70.0258432 C29.6819037,70.0260658 29.6821263,70.0265111 29.6821263,70.0269564 Z M36.5143612,72.3220316 C35.5407132,72.3220316 34.6418755,71.8406625 34.0222408,71.0633917 C34.0407208,71.0611652 34.0585328,71.0582707 34.0767901,71.0560442 C34.1999155,71.0413494 34.3245994,71.028881 34.449506,71.0166352 C34.5223125,71.0092878 34.5946737,71.0012724 34.6679256,70.9945929 C34.8280108,70.9803433 34.9892094,70.9689881 35.1512985,70.9585236 C35.1900396,70.9558518 35.2281127,70.952512 35.2670764,70.9502855 C36.0928849,70.9017479 36.9353922,70.9017479 37.7612006,70.9502855 C37.800387,70.9527347 37.8389055,70.9560744 37.8776465,70.9587462 C38.0392904,70.9692108 38.2002662,70.9805659 38.3601289,70.9945929 C38.433158,71.0010497 38.5052966,71.0092878 38.5778805,71.0166352 C38.7030097,71.028881 38.828139,71.041572 38.9517097,71.0562669 C38.9697443,71.0584934 38.9877789,71.0613878 39.0058136,71.0636143 C38.3866242,71.8404399 37.4877866,72.3220316 36.5143612,72.3220316 Z M36.5143612,64.8151675 C38.0248181,64.8151675 39.3046098,65.9473423 39.7160668,67.496095 C39.6606269,67.4885249 39.6042965,67.4836266 39.5488567,67.4765018 C39.3999039,67.4575765 39.2505058,67.4402099 39.1002171,67.4239564 C39.0002473,67.4132692 38.9005002,67.4028047 38.8000851,67.3934534 C38.645566,67.3789811 38.4901564,67.3665127 38.3340788,67.3549349 C38.2378941,67.3475875 38.1414867,67.3400174 38.0448566,67.3342285 C37.8743068,67.323764 37.7026437,67.3161939 37.5309806,67.3090691 C37.4483775,67.3057293 37.3659971,67.3010537 37.2829486,67.2983819 C37.0277919,67.2905891 36.7717445,67.2861361 36.5141385,67.2861361 C36.25631,67.2861361 36.0002626,67.2908118 35.7453284,67.2983819 C35.6618347,67.3010537 35.5794543,67.3057293 35.4961832,67.3090691 C35.3249654,67.3159712 35.1537476,67.323764 34.9836431,67.3342285 C34.8861225,67.34024 34.7894924,67.3480328 34.692417,67.3549349 C34.5370074,67.3665127 34.3818204,67.3789811 34.2275241,67.3934534 C34.1273316,67.4028047 34.0275844,67.4134919 33.9278373,67.4239564 C33.7771033,67.4399872 33.6270373,67.4575765 33.4776392,67.4767244 C33.422422,67.4836266 33.3665369,67.4885249 33.311765,67.496095 C33.72389,65.9473423 35.0036816,64.8151675 36.5143612,64.8151675 Z" id="Shape" fill="#000000"></path>
                        </g>
                    </g>
                </g>
            </g>
        </g>
    </g>
</svg>