<?xml version="1.0" encoding="UTF-8"?>
<svg width="24px" height="16px" viewBox="0 0 24 16" version="1.1" xmlns="http://www.w3.org/2000/svg" xmlns:xlink="http://www.w3.org/1999/xlink">
    <!-- Generator: Sketch 46 (44423) - http://www.bohemiancoding.com/sketch -->
    <title>flag-usa</title>
    <desc>Created with Sketch.</desc>
    <defs></defs>
    <g id="landing" stroke="none" stroke-width="1" fill="none" fill-rule="evenodd">
        <g id="start" transform="translate(-663.000000, -498.000000)" fill-rule="nonzero">
            <g id="Group-6" transform="translate(338.000000, 497.000000)">
                <g id="flag-usa" transform="translate(325.000000, 1.000000)">
                    <path d="M23.4608121,15.6534568 L0.411612827,15.6534568 C0.184311906,15.6534568 0,15.4691449 0,15.2418439 L0,0.424481556 C0,0.197180635 0.184311906,0.0128687291 0.411612827,0.0128687291 L23.4608588,0.0128687291 C23.6881597,0.0128687291 23.8724716,0.197180635 23.8724716,0.424481556 L23.8724716,15.2418439 C23.872425,15.4691915 23.6881131,15.6534568 23.4608121,15.6534568 Z" id="Shape" fill="#F5F5F5"></path>
                    <g id="Group" fill="#FF4B55">
                        <path d="M23.872425,1.21604827 L0,1.21604827 L0,0.424481556 C0,0.197180635 0.184311906,0.0128687291 0.411612827,0.0128687291 L23.4608588,0.0128687291 C23.6881597,0.0128687291 23.8724716,0.197180635 23.8724716,0.424481556 L23.872425,1.21604827 L23.872425,1.21604827 Z" id="Shape"></path>
                        <rect id="Rectangle-path" x="0" y="4.82535377" width="23.872425" height="1.20313292"></rect>
                        <rect id="Rectangle-path" x="0" y="2.41899469" width="23.872425" height="1.20313292"></rect>
                        <path d="M23.872425,8.43475252 L0.411612827,8.43475252 C0.184311906,8.43475252 0,8.25044062 0,8.0231397 L0,7.23157298 L23.872425,7.23157298 L23.872425,8.43475252 Z" id="Shape"></path>
                        <rect id="Rectangle-path" x="0" y="12.044431" width="23.872425" height="1.20313292"></rect>
                        <path d="M23.4608121,15.6534568 L0.411612827,15.6534568 C0.184311906,15.6534568 0,15.4691449 0,15.2418439 L0,14.4503239 L23.872425,14.4503239 L23.872425,15.2418906 C23.872425,15.4691915 23.6881131,15.6534568 23.4608121,15.6534568 Z" id="Shape"></path>
                        <rect id="Rectangle-path" x="0" y="9.63807195" width="23.872425" height="1.20313292"></rect>
                    </g>
                    <path d="M10.7014206,0.0129153549 L0.411612827,0.0129153549 C0.184311906,0.0129153549 0,0.197180635 0,0.424481556 L0,8.02309307 C0,8.25039399 0.184311906,8.4347059 0.411612827,8.4347059 L10.7014672,8.4347059 C10.9287682,8.4347059 11.1130801,8.25039399 11.1130801,8.02309307 L11.1130801,0.424481556 C11.1130335,0.197180635 10.9287215,0.0129153549 10.7014206,0.0129153549 Z" id="Shape" fill="#41479B"></path>
                    <g id="Group" transform="translate(0.652762, 0.885891)" fill="#F5F5F5">
                        <path d="M0.50304608,0.0717105265 L0.594152952,0.34493789 L0.882160704,0.347129304 C0.919461368,0.347455685 0.934894517,0.395014032 0.904914109,0.417161301 L0.673230359,0.588278097 L0.760140906,0.86285761 C0.771424357,0.898386492 0.730906511,0.927854017 0.700553096,0.90612638 L0.4662583,0.738693025 L0.231963504,0.906173006 C0.201610089,0.927854017 0.161185494,0.898433118 0.172375694,0.862904236 L0.259286241,0.588324723 L0.0276024914,0.417207927 C-0.00237791733,0.395014032 0.0130552324,0.347502311 0.0503558964,0.34717593 L0.338363648,0.344984516 L0.42947052,0.0717571524 C0.441220229,0.0363215216 0.491203119,0.0363215216 0.50304608,0.0717105265 Z" id="Shape"></path>
                        <path d="M0.50304608,1.50097872 L0.594152952,1.77420608 L0.882160704,1.7763975 C0.919461368,1.77672388 0.934894517,1.82428222 0.904914109,1.84642949 L0.673230359,2.01754629 L0.760140906,2.2921258 C0.771424357,2.32765469 0.730906511,2.35712221 0.700553096,2.33539457 L0.4662583,2.16796122 L0.231963504,2.3354412 C0.201610089,2.35712221 0.161185494,2.32770131 0.172375694,2.29217243 L0.259286241,2.01759292 L0.0276024914,1.84647612 C-0.00237791733,1.82428222 0.0130552324,1.7767705 0.0503558964,1.77644412 L0.338363648,1.77425271 L0.42947052,1.50102535 C0.441220229,1.46563634 0.491203119,1.46563634 0.50304608,1.50097872 Z" id="Shape"></path>
                        <path d="M0.50304608,2.93024691 L0.594152952,3.20347428 L0.882160704,3.20566569 C0.919461368,3.20599207 0.934894517,3.25355042 0.904914109,3.27569769 L0.673230359,3.44681448 L0.760140906,3.721394 C0.771424357,3.75692288 0.730906511,3.7863904 0.700553096,3.76466277 L0.4662583,3.59722941 L0.231963504,3.76470939 C0.201610089,3.7863904 0.161185494,3.7569695 0.172375694,3.72144062 L0.259286241,3.44686111 L0.0276024914,3.27574431 C-0.00237791733,3.25355042 0.0130552324,3.2060387 0.0503558964,3.20571232 L0.338363648,3.2035209 L0.42947052,2.93029354 C0.441220229,2.89490453 0.491203119,2.89490453 0.50304608,2.93024691 Z" id="Shape"></path>
                        <path d="M0.50304608,4.35956173 L0.594152952,4.63278909 L0.882160704,4.63498051 C0.919461368,4.63530689 0.934894517,4.68286524 0.904914109,4.70501251 L0.673230359,4.8761293 L0.760140906,5.15070881 C0.771424357,5.1862377 0.730906511,5.21570522 0.700553096,5.19397758 L0.4662583,5.02654423 L0.231963504,5.19402421 C0.201610089,5.21570522 0.161185494,5.18628432 0.172375694,5.15075544 L0.259286241,4.87617593 L0.0276024914,4.70505913 C-0.00237791733,4.68286524 0.0130552324,4.63535352 0.0503558964,4.63502713 L0.338363648,4.63283572 L0.42947052,4.35960836 C0.441220229,4.32417273 0.491203119,4.32417273 0.50304608,4.35956173 Z" id="Shape"></path>
                        <path d="M0.50304608,5.78882992 L0.594152952,6.06205729 L0.882160704,6.0642487 C0.919461368,6.06457508 0.934894517,6.11213343 0.904914109,6.1342807 L0.673230359,6.30539749 L0.760140906,6.57997701 C0.771424357,6.61550589 0.730906511,6.64497341 0.700553096,6.62324578 L0.4662583,6.45581242 L0.231963504,6.6232924 C0.201610089,6.64497341 0.161185494,6.61555252 0.172375694,6.58002363 L0.259286241,6.30544412 L0.0276024914,6.13432732 C-0.00237791733,6.11213343 0.0130552324,6.06462171 0.0503558964,6.06429533 L0.338363648,6.06210391 L0.42947052,5.78887655 C0.441220229,5.75339429 0.491203119,5.75339429 0.50304608,5.78882992 Z" id="Shape"></path>
                        <path d="M1.61241445,0.772450126 L1.70352132,1.04567749 L1.99152908,1.0478689 C2.02882974,1.04819528 2.04426289,1.09575363 2.01428248,1.1179009 L1.78259873,1.2890177 L1.86950928,1.56359721 C1.88079273,1.59912609 1.84027488,1.62859362 1.80992147,1.60686598 L1.57562667,1.439386 L1.34133188,1.60686598 C1.31097846,1.62854699 1.27055387,1.59912609 1.28174407,1.56359721 L1.36865461,1.2890177 L1.13697086,1.1179009 C1.10699046,1.09570701 1.12242361,1.04819528 1.15972427,1.0478689 L1.44773202,1.04567749 L1.53883889,0.772450126 C1.55054198,0.737107746 1.60061812,0.737107746 1.61241445,0.772450126 Z" id="Shape"></path>
                        <path d="M1.61241445,2.20176494 L1.70352132,2.47499231 L1.99152908,2.47718372 C2.02882974,2.4775101 2.04426289,2.52506845 2.01428248,2.54721572 L1.78259873,2.71833251 L1.86950928,2.99291203 C1.88079273,3.02844091 1.84027488,3.05790843 1.80992147,3.0361808 L1.57562667,2.86870082 L1.34133188,3.0361808 C1.31097846,3.05786181 1.27055387,3.02848754 1.28174407,2.99291203 L1.36865461,2.71833251 L1.13697086,2.54721572 C1.10699046,2.52502182 1.12242361,2.4775101 1.15972427,2.47718372 L1.44773202,2.47499231 L1.53883889,2.20176494 C1.55054198,2.16637594 1.60061812,2.16637594 1.61241445,2.20176494 Z" id="Shape"></path>
                        <path d="M1.61241445,3.63103314 L1.70352132,3.9042605 L1.99152908,3.90645191 C2.02882974,3.9067783 2.04426289,3.95433664 2.01428248,3.97648391 L1.78259873,4.14760071 L1.86950928,4.42218022 C1.88079273,4.4577091 1.84027488,4.48717663 1.80992147,4.46544899 L1.57562667,4.29796901 L1.34133188,4.46544899 C1.31097846,4.48713 1.27055387,4.4577091 1.28174407,4.42218022 L1.36865461,4.14760071 L1.13697086,3.97648391 C1.10699046,3.95429002 1.12242361,3.9067783 1.15972427,3.90645191 L1.44773202,3.9042605 L1.53883889,3.63103314 C1.55054198,3.59564413 1.60061812,3.59564413 1.61241445,3.63103314 Z" id="Shape"></path>
                        <path d="M1.61241445,5.06030133 L1.70352132,5.33352869 L1.99152908,5.33572011 C2.02882974,5.33604649 2.04426289,5.38360484 2.01428248,5.4057521 L1.78259873,5.5768689 L1.86950928,5.85144841 C1.88079273,5.8869773 1.84027488,5.91644482 1.80992147,5.89471718 L1.57562667,5.7272372 L1.34133188,5.89471718 C1.31097846,5.91639819 1.27055387,5.8869773 1.28174407,5.85144841 L1.36865461,5.5768689 L1.13697086,5.4057521 C1.10699046,5.38355821 1.12242361,5.33604649 1.15972427,5.33572011 L1.44773202,5.33352869 L1.53883889,5.06030133 C1.55054198,5.02495895 1.60061812,5.02495895 1.61241445,5.06030133 Z" id="Shape"></path>
                        <path d="M2.72178283,0.0717105265 L2.8128897,0.34493789 L3.10089745,0.347129304 C3.13819811,0.347455685 3.15363126,0.395014032 3.12365086,0.417161301 L2.89196711,0.588278097 L2.97887765,0.86285761 C2.9901611,0.898386492 2.94964326,0.927854017 2.91928984,0.90612638 L2.68499505,0.738646399 L2.45070025,0.90612638 C2.42034684,0.927807391 2.37992224,0.898386492 2.39111244,0.86285761 L2.47802299,0.588278097 L2.24633924,0.417161301 C2.21635883,0.394967406 2.23179198,0.347455685 2.26909264,0.347129304 L2.55710039,0.34493789 L2.64820727,0.0717105265 C2.65995698,0.0363215216 2.70998649,0.0363215216 2.72178283,0.0717105265 Z" id="Shape"></path>
                        <path d="M2.72178283,1.50097872 L2.8128897,1.77420608 L3.10089745,1.7763975 C3.13819811,1.77672388 3.15363126,1.82428222 3.12365086,1.84642949 L2.89196711,2.01754629 L2.97887765,2.2921258 C2.9901611,2.32765469 2.94964326,2.35712221 2.91928984,2.33539457 L2.68499505,2.16791459 L2.45070025,2.33539457 C2.42034684,2.35707558 2.37992224,2.32765469 2.39111244,2.2921258 L2.47802299,2.01754629 L2.24633924,1.84642949 C2.21635883,1.8242356 2.23179198,1.77672388 2.26909264,1.7763975 L2.55710039,1.77420608 L2.64820727,1.50097872 C2.65995698,1.46563634 2.70998649,1.46563634 2.72178283,1.50097872 Z" id="Shape"></path>
                        <path d="M2.72178283,2.93024691 L2.8128897,3.20347428 L3.10089745,3.20566569 C3.13819811,3.20599207 3.15363126,3.25355042 3.12365086,3.27569769 L2.89196711,3.44681448 L2.97887765,3.721394 C2.9901611,3.75692288 2.94964326,3.7863904 2.91928984,3.76466277 L2.68499505,3.59718278 L2.45070025,3.76466277 C2.42034684,3.78634378 2.37992224,3.75692288 2.39111244,3.721394 L2.47802299,3.44681448 L2.24633924,3.27569769 C2.21635883,3.25350379 2.23179198,3.20599207 2.26909264,3.20566569 L2.55710039,3.20347428 L2.64820727,2.93024691 C2.65995698,2.89490453 2.70998649,2.89490453 2.72178283,2.93024691 Z" id="Shape"></path>
                        <path d="M2.72178283,4.35956173 L2.8128897,4.63278909 L3.10089745,4.63498051 C3.13819811,4.63530689 3.15363126,4.68286524 3.12365086,4.70501251 L2.89196711,4.8761293 L2.97887765,5.15070881 C2.9901611,5.1862377 2.94964326,5.21570522 2.91928984,5.19397758 L2.68499505,5.0264976 L2.45070025,5.19397758 C2.42034684,5.2156586 2.37992224,5.1862377 2.39111244,5.15070881 L2.47802299,4.8761293 L2.24633924,4.70501251 C2.21635883,4.68281861 2.23179198,4.63530689 2.26909264,4.63498051 L2.55710039,4.63278909 L2.64820727,4.35956173 C2.65995698,4.32417273 2.70998649,4.32417273 2.72178283,4.35956173 Z" id="Shape"></path>
                        <path d="M2.72178283,5.78882992 L2.8128897,6.06205729 L3.10089745,6.0642487 C3.13819811,6.06457508 3.15363126,6.11213343 3.12365086,6.1342807 L2.89196711,6.30539749 L2.97887765,6.57997701 C2.9901611,6.61550589 2.94964326,6.64497341 2.91928984,6.62324578 L2.68499505,6.4557658 L2.45070025,6.62324578 C2.42034684,6.64492679 2.37992224,6.61550589 2.39111244,6.57997701 L2.47802299,6.30539749 L2.24633924,6.1342807 C2.21635883,6.1120868 2.23179198,6.06457508 2.26909264,6.0642487 L2.55710039,6.06205729 L2.64820727,5.78882992 C2.65995698,5.75339429 2.70998649,5.75339429 2.72178283,5.78882992 Z" id="Shape"></path>
                        <path d="M3.83119783,0.772450126 L3.9223047,1.04567749 L4.21031245,1.0478689 C4.24761311,1.04819528 4.26304626,1.09575363 4.23306585,1.1179009 L4.0013821,1.2890177 L4.08829265,1.56359721 C4.0995761,1.59912609 4.05905826,1.62859362 4.02870484,1.60686598 L3.79441005,1.439386 L3.56011525,1.60686598 C3.52976183,1.62854699 3.48933724,1.59912609 3.50052744,1.56359721 L3.58743799,1.2890177 L3.35575424,1.1179009 C3.32577383,1.09570701 3.34120698,1.04819528 3.37850764,1.0478689 L3.66651539,1.04567749 L3.75762227,0.772450126 C3.76932535,0.737107746 3.81940149,0.737107746 3.83119783,0.772450126 Z" id="Shape"></path>
                        <path d="M3.83119783,2.20176494 L3.9223047,2.47499231 L4.21031245,2.47718372 C4.24761311,2.4775101 4.26304626,2.52506845 4.23306585,2.54721572 L4.0013821,2.71833251 L4.08829265,2.99291203 C4.0995761,3.02844091 4.05905826,3.05790843 4.02870484,3.0361808 L3.79441005,2.86870082 L3.56011525,3.0361808 C3.52976183,3.05786181 3.48933724,3.02848754 3.50052744,2.99291203 L3.58743799,2.71833251 L3.35575424,2.54721572 C3.32577383,2.52502182 3.34120698,2.4775101 3.37850764,2.47718372 L3.66651539,2.47499231 L3.75762227,2.20176494 C3.76932535,2.16637594 3.81940149,2.16637594 3.83119783,2.20176494 Z" id="Shape"></path>
                        <path d="M3.83119783,3.63103314 L3.9223047,3.9042605 L4.21031245,3.90645191 C4.24761311,3.9067783 4.26304626,3.95433664 4.23306585,3.97648391 L4.0013821,4.14760071 L4.08829265,4.42218022 C4.0995761,4.4577091 4.05905826,4.48717663 4.02870484,4.46544899 L3.79441005,4.29796901 L3.56011525,4.46544899 C3.52976183,4.48713 3.48933724,4.4577091 3.50052744,4.42218022 L3.58743799,4.14760071 L3.35575424,3.97648391 C3.32577383,3.95429002 3.34120698,3.9067783 3.37850764,3.90645191 L3.66651539,3.9042605 L3.75762227,3.63103314 C3.76932535,3.59564413 3.81940149,3.59564413 3.83119783,3.63103314 Z" id="Shape"></path>
                        <path d="M3.83119783,5.06030133 L3.9223047,5.33352869 L4.21031245,5.33572011 C4.24761311,5.33604649 4.26304626,5.38360484 4.23306585,5.4057521 L4.0013821,5.5768689 L4.08829265,5.85144841 C4.0995761,5.8869773 4.05905826,5.91644482 4.02870484,5.89471718 L3.79441005,5.7272372 L3.56011525,5.89471718 C3.52976183,5.91639819 3.48933724,5.8869773 3.50052744,5.85144841 L3.58743799,5.5768689 L3.35575424,5.4057521 C3.32577383,5.38355821 3.34120698,5.33604649 3.37850764,5.33572011 L3.66651539,5.33352869 L3.75762227,5.06030133 C3.76932535,5.02495895 3.81940149,5.02495895 3.83119783,5.06030133 Z" id="Shape"></path>
                        <path d="M4.9405662,0.0717105265 L5.03167307,0.34493789 L5.31968082,0.347129304 C5.35698149,0.347455685 5.37241464,0.395014032 5.34243423,0.417161301 L5.11075048,0.588278097 L5.19766103,0.86285761 C5.20894448,0.898386492 5.16842663,0.927854017 5.13807321,0.90612638 L4.90373179,0.738646399 L4.669437,0.90612638 C4.63908358,0.927807391 4.59865899,0.898386492 4.60984919,0.86285761 L4.69675973,0.588278097 L4.46507598,0.417161301 C4.43509558,0.394967406 4.45052873,0.347455685 4.48782939,0.347129304 L4.77583714,0.34493789 L4.86694401,0.0717105265 C4.87874035,0.0363215216 4.92876986,0.0363215216 4.9405662,0.0717105265 Z" id="Shape"></path>
                        <path d="M4.9405662,1.50097872 L5.03167307,1.77420608 L5.31968082,1.7763975 C5.35698149,1.77672388 5.37241464,1.82428222 5.34243423,1.84642949 L5.11075048,2.01754629 L5.19766103,2.2921258 C5.20894448,2.32765469 5.16842663,2.35712221 5.13807321,2.33539457 L4.90373179,2.16791459 L4.669437,2.33539457 C4.63908358,2.35707558 4.59865899,2.32765469 4.60984919,2.2921258 L4.69675973,2.01754629 L4.46507598,1.84642949 C4.43509558,1.8242356 4.45052873,1.77672388 4.48782939,1.7763975 L4.77583714,1.77420608 L4.86694401,1.50097872 C4.87874035,1.46563634 4.92876986,1.46563634 4.9405662,1.50097872 Z" id="Shape"></path>
                        <path d="M4.9405662,2.93024691 L5.03167307,3.20347428 L5.31968082,3.20566569 C5.35698149,3.20599207 5.37241464,3.25355042 5.34243423,3.27569769 L5.11075048,3.44681448 L5.19766103,3.721394 C5.20894448,3.75692288 5.16842663,3.7863904 5.13807321,3.76466277 L4.90373179,3.59718278 L4.669437,3.76466277 C4.63908358,3.78634378 4.59865899,3.75692288 4.60984919,3.721394 L4.69675973,3.44681448 L4.46507598,3.27569769 C4.43509558,3.25350379 4.45052873,3.20599207 4.48782939,3.20566569 L4.77583714,3.20347428 L4.86694401,2.93024691 C4.87874035,2.89490453 4.92876986,2.89490453 4.9405662,2.93024691 Z" id="Shape"></path>
                        <path d="M4.9405662,4.35956173 L5.03167307,4.63278909 L5.31968082,4.63498051 C5.35698149,4.63530689 5.37241464,4.68286524 5.34243423,4.70501251 L5.11075048,4.8761293 L5.19766103,5.15070881 C5.20894448,5.1862377 5.16842663,5.21570522 5.13807321,5.19397758 L4.90373179,5.0264976 L4.669437,5.19397758 C4.63908358,5.2156586 4.59865899,5.1862377 4.60984919,5.15070881 L4.69675973,4.8761293 L4.46507598,4.70501251 C4.43509558,4.68281861 4.45052873,4.63530689 4.48782939,4.63498051 L4.77583714,4.63278909 L4.86694401,4.35956173 C4.87874035,4.32417273 4.92876986,4.32417273 4.9405662,4.35956173 Z" id="Shape"></path>
                        <path d="M4.9405662,5.78882992 L5.03167307,6.06205729 L5.31968082,6.0642487 C5.35698149,6.06457508 5.37241464,6.11213343 5.34243423,6.1342807 L5.11075048,6.30539749 L5.19766103,6.57997701 C5.20894448,6.61550589 5.16842663,6.64497341 5.13807321,6.62324578 L4.90373179,6.4557658 L4.669437,6.62324578 C4.63908358,6.64492679 4.59865899,6.61550589 4.60984919,6.57997701 L4.69675973,6.30539749 L4.46507598,6.1342807 C4.43509558,6.1120868 4.45052873,6.06457508 4.48782939,6.0642487 L4.77583714,6.06205729 L4.86694401,5.78882992 C4.87874035,5.75339429 4.92876986,5.75339429 4.9405662,5.78882992 Z" id="Shape"></path>
                        <path d="M6.04993457,0.772450126 L6.14104144,1.04567749 L6.4290492,1.0478689 C6.46634986,1.04819528 6.48178301,1.09575363 6.4518026,1.1179009 L6.22011885,1.2890177 L6.3070294,1.56359721 C6.31831285,1.59912609 6.277795,1.62859362 6.24744159,1.60686598 L6.01314679,1.439386 L5.778852,1.60686598 C5.74849858,1.62854699 5.70807399,1.59912609 5.71926419,1.56359721 L5.80617473,1.2890177 L5.57449098,1.1179009 C5.54451057,1.09570701 5.55994372,1.04819528 5.59724439,1.0478689 L5.88525214,1.04567749 L5.97635901,0.772450126 C5.98815535,0.737107746 6.03813824,0.737107746 6.04993457,0.772450126 Z" id="Shape"></path>
                        <path d="M6.04993457,2.20176494 L6.14104144,2.47499231 L6.4290492,2.47718372 C6.46634986,2.4775101 6.48178301,2.52506845 6.4518026,2.54721572 L6.22011885,2.71833251 L6.3070294,2.99291203 C6.31831285,3.02844091 6.277795,3.05790843 6.24744159,3.0361808 L6.01314679,2.86870082 L5.778852,3.0361808 C5.74849858,3.05786181 5.70807399,3.02848754 5.71926419,2.99291203 L5.80617473,2.71833251 L5.57449098,2.54721572 C5.54451057,2.52502182 5.55994372,2.4775101 5.59724439,2.47718372 L5.88525214,2.47499231 L5.97635901,2.20176494 C5.98815535,2.16637594 6.03813824,2.16637594 6.04993457,2.20176494 Z" id="Shape"></path>
                        <path d="M6.04993457,3.63103314 L6.14104144,3.9042605 L6.4290492,3.90645191 C6.46634986,3.9067783 6.48178301,3.95433664 6.4518026,3.97648391 L6.22011885,4.14760071 L6.3070294,4.42218022 C6.31831285,4.4577091 6.277795,4.48717663 6.24744159,4.46544899 L6.01314679,4.29796901 L5.778852,4.46544899 C5.74849858,4.48713 5.70807399,4.4577091 5.71926419,4.42218022 L5.80617473,4.14760071 L5.57449098,3.97648391 C5.54451057,3.95429002 5.55994372,3.9067783 5.59724439,3.90645191 L5.88525214,3.9042605 L5.97635901,3.63103314 C5.98815535,3.59564413 6.03813824,3.59564413 6.04993457,3.63103314 Z" id="Shape"></path>
                        <path d="M6.04993457,5.06030133 L6.14104144,5.33352869 L6.4290492,5.33572011 C6.46634986,5.33604649 6.48178301,5.38360484 6.4518026,5.4057521 L6.22011885,5.5768689 L6.3070294,5.85144841 C6.31831285,5.8869773 6.277795,5.91644482 6.24744159,5.89471718 L6.01314679,5.7272372 L5.778852,5.89471718 C5.74849858,5.91639819 5.70807399,5.8869773 5.71926419,5.85144841 L5.80617473,5.5768689 L5.57449098,5.4057521 C5.54451057,5.38355821 5.55994372,5.33604649 5.59724439,5.33572011 L5.88525214,5.33352869 L5.97635901,5.06030133 C5.98815535,5.02495895 6.03813824,5.02495895 6.04993457,5.06030133 Z" id="Shape"></path>
                        <path d="M7.15934957,0.0717105265 L7.25045644,0.34493789 L7.53846419,0.347129304 C7.57576486,0.347455685 7.59119801,0.395014032 7.5612176,0.417161301 L7.32953385,0.588278097 L7.4164444,0.86285761 C7.42772785,0.898386492 7.38721,0.927854017 7.35685659,0.90612638 L7.12256179,0.738646399 L6.888267,0.90612638 C6.85791358,0.927807391 6.81748899,0.898386492 6.82867918,0.86285761 L6.91558973,0.588278097 L6.68390598,0.417161301 C6.65392557,0.394967406 6.66935872,0.347455685 6.70665939,0.347129304 L6.99466714,0.34493789 L7.08577401,0.0717105265 C7.09747709,0.0363215216 7.14755324,0.0363215216 7.15934957,0.0717105265 Z" id="Shape"></path>
                        <path d="M7.15934957,1.50097872 L7.25045644,1.77420608 L7.53846419,1.7763975 C7.57576486,1.77672388 7.59119801,1.82428222 7.5612176,1.84642949 L7.32953385,2.01754629 L7.4164444,2.2921258 C7.42772785,2.32765469 7.38721,2.35712221 7.35685659,2.33539457 L7.12256179,2.16791459 L6.888267,2.33539457 C6.85791358,2.35707558 6.81748899,2.32765469 6.82867918,2.2921258 L6.91558973,2.01754629 L6.68390598,1.84642949 C6.65392557,1.8242356 6.66935872,1.77672388 6.70665939,1.7763975 L6.99466714,1.77420608 L7.08577401,1.50097872 C7.09747709,1.46563634 7.14755324,1.46563634 7.15934957,1.50097872 Z" id="Shape"></path>
                        <path d="M7.15934957,2.93024691 L7.25045644,3.20347428 L7.53846419,3.20566569 C7.57576486,3.20599207 7.59119801,3.25355042 7.5612176,3.27569769 L7.32953385,3.44681448 L7.4164444,3.721394 C7.42772785,3.75692288 7.38721,3.7863904 7.35685659,3.76466277 L7.12256179,3.59718278 L6.888267,3.76466277 C6.85791358,3.78634378 6.81748899,3.75692288 6.82867918,3.721394 L6.91558973,3.44681448 L6.68390598,3.27569769 C6.65392557,3.25350379 6.66935872,3.20599207 6.70665939,3.20566569 L6.99466714,3.20347428 L7.08577401,2.93024691 C7.09747709,2.89490453 7.14755324,2.89490453 7.15934957,2.93024691 Z" id="Shape"></path>
                        <path d="M7.15934957,4.35956173 L7.25045644,4.63278909 L7.53846419,4.63498051 C7.57576486,4.63530689 7.59119801,4.68286524 7.5612176,4.70501251 L7.32953385,4.8761293 L7.4164444,5.15070881 C7.42772785,5.1862377 7.38721,5.21570522 7.35685659,5.19397758 L7.12256179,5.0264976 L6.888267,5.19397758 C6.85791358,5.2156586 6.81748899,5.1862377 6.82867918,5.15070881 L6.91558973,4.8761293 L6.68390598,4.70501251 C6.65392557,4.68281861 6.66935872,4.63530689 6.70665939,4.63498051 L6.99466714,4.63278909 L7.08577401,4.35956173 C7.09747709,4.32417273 7.14755324,4.32417273 7.15934957,4.35956173 Z" id="Shape"></path>
                        <path d="M7.15934957,5.78882992 L7.25045644,6.06205729 L7.53846419,6.0642487 C7.57576486,6.06457508 7.59119801,6.11213343 7.5612176,6.1342807 L7.32953385,6.30539749 L7.4164444,6.57997701 C7.42772785,6.61550589 7.38721,6.64497341 7.35685659,6.62324578 L7.12256179,6.4557658 L6.888267,6.62324578 C6.85791358,6.64492679 6.81748899,6.61550589 6.82867918,6.57997701 L6.91558973,6.30539749 L6.68390598,6.1342807 C6.65392557,6.1120868 6.66935872,6.06457508 6.70665939,6.0642487 L6.99466714,6.06205729 L7.08577401,5.78882992 C7.09747709,5.75339429 7.14755324,5.75339429 7.15934957,5.78882992 Z" id="Shape"></path>
                        <path d="M8.26871794,0.772450126 L8.35982482,1.04567749 L8.64783257,1.0478689 C8.68513323,1.04819528 8.70056638,1.09575363 8.67058597,1.1179009 L8.43890222,1.2890177 L8.52581277,1.56359721 C8.53709622,1.59912609 8.49657838,1.62859362 8.46622496,1.60686598 L8.23193016,1.439386 L7.99763537,1.60686598 C7.96728195,1.62854699 7.92685736,1.59912609 7.93804756,1.56359721 L8.0249581,1.2890177 L7.79327436,1.1179009 C7.76329395,1.09570701 7.7787271,1.04819528 7.81602776,1.0478689 L8.10403551,1.04567749 L8.19514238,0.772450126 C8.20689209,0.737107746 8.25696823,0.737107746 8.26871794,0.772450126 Z" id="Shape"></path>
                        <path d="M8.26871794,2.20176494 L8.35982482,2.47499231 L8.64783257,2.47718372 C8.68513323,2.4775101 8.70056638,2.52506845 8.67058597,2.54721572 L8.43890222,2.71833251 L8.52581277,2.99291203 C8.53709622,3.02844091 8.49657838,3.05790843 8.46622496,3.0361808 L8.23193016,2.86870082 L7.99763537,3.0361808 C7.96728195,3.05786181 7.92685736,3.02848754 7.93804756,2.99291203 L8.0249581,2.71833251 L7.79327436,2.54721572 C7.76329395,2.52502182 7.7787271,2.4775101 7.81602776,2.47718372 L8.10403551,2.47499231 L8.19514238,2.20176494 C8.20689209,2.16637594 8.25696823,2.16637594 8.26871794,2.20176494 Z" id="Shape"></path>
                        <path d="M8.26871794,3.63103314 L8.35982482,3.9042605 L8.64783257,3.90645191 C8.68513323,3.9067783 8.70056638,3.95433664 8.67058597,3.97648391 L8.43890222,4.14760071 L8.52581277,4.42218022 C8.53709622,4.4577091 8.49657838,4.48717663 8.46622496,4.46544899 L8.23193016,4.29796901 L7.99763537,4.46544899 C7.96728195,4.48713 7.92685736,4.4577091 7.93804756,4.42218022 L8.0249581,4.14760071 L7.79327436,3.97648391 C7.76329395,3.95429002 7.7787271,3.9067783 7.81602776,3.90645191 L8.10403551,3.9042605 L8.19514238,3.63103314 C8.20689209,3.59564413 8.25696823,3.59564413 8.26871794,3.63103314 Z" id="Shape"></path>
                        <path d="M8.26871794,5.06030133 L8.35982482,5.33352869 L8.64783257,5.33572011 C8.68513323,5.33604649 8.70056638,5.38360484 8.67058597,5.4057521 L8.43890222,5.5768689 L8.52581277,5.85144841 C8.53709622,5.8869773 8.49657838,5.91644482 8.46622496,5.89471718 L8.23193016,5.7272372 L7.99763537,5.89471718 C7.96728195,5.91639819 7.92685736,5.8869773 7.93804756,5.85144841 L8.0249581,5.5768689 L7.79327436,5.4057521 C7.76329395,5.38355821 7.7787271,5.33604649 7.81602776,5.33572011 L8.10403551,5.33352869 L8.19514238,5.06030133 C8.20689209,5.02495895 8.25696823,5.02495895 8.26871794,5.06030133 Z" id="Shape"></path>
                        <path d="M9.37813294,0.0717105265 L9.46923981,0.34493789 L9.75724757,0.347129304 C9.79454823,0.347455685 9.80998138,0.395014032 9.78000097,0.417161301 L9.54831722,0.588278097 L9.63522777,0.86285761 C9.64651122,0.898386492 9.60599337,0.927854017 9.57563996,0.90612638 L9.34134516,0.738646399 L9.10705037,0.90612638 C9.07669695,0.927807391 9.03627236,0.898386492 9.04746256,0.86285761 L9.1343731,0.588278097 L8.90268935,0.417161301 C8.87270895,0.394967406 8.8881421,0.347455685 8.92544276,0.347129304 L9.21345051,0.34493789 L9.30455738,0.0717105265 C9.31630709,0.0363215216 9.36628998,0.0363215216 9.37813294,0.0717105265 Z" id="Shape"></path>
                        <path d="M9.37813294,1.50097872 L9.46923981,1.77420608 L9.75724757,1.7763975 C9.79454823,1.77672388 9.80998138,1.82428222 9.78000097,1.84642949 L9.54831722,2.01754629 L9.63522777,2.2921258 C9.64651122,2.32765469 9.60599337,2.35712221 9.57563996,2.33539457 L9.34134516,2.16791459 L9.10705037,2.33539457 C9.07669695,2.35707558 9.03627236,2.32765469 9.04746256,2.2921258 L9.1343731,2.01754629 L8.90268935,1.84642949 C8.87270895,1.8242356 8.8881421,1.77672388 8.92544276,1.7763975 L9.21345051,1.77420608 L9.30455738,1.50097872 C9.31630709,1.46563634 9.36628998,1.46563634 9.37813294,1.50097872 Z" id="Shape"></path>
                        <path d="M9.37813294,2.93024691 L9.46923981,3.20347428 L9.75724757,3.20566569 C9.79454823,3.20599207 9.80998138,3.25355042 9.78000097,3.27569769 L9.54831722,3.44681448 L9.63522777,3.721394 C9.64651122,3.75692288 9.60599337,3.7863904 9.57563996,3.76466277 L9.34134516,3.59718278 L9.10705037,3.76466277 C9.07669695,3.78634378 9.03627236,3.75692288 9.04746256,3.721394 L9.1343731,3.44681448 L8.90268935,3.27569769 C8.87270895,3.25350379 8.8881421,3.20599207 8.92544276,3.20566569 L9.21345051,3.20347428 L9.30455738,2.93024691 C9.31630709,2.89490453 9.36628998,2.89490453 9.37813294,2.93024691 Z" id="Shape"></path>
                        <path d="M9.37813294,4.35956173 L9.46923981,4.63278909 L9.75724757,4.63498051 C9.79454823,4.63530689 9.80998138,4.68286524 9.78000097,4.70501251 L9.54831722,4.8761293 L9.63522777,5.15070881 C9.64651122,5.1862377 9.60599337,5.21570522 9.57563996,5.19397758 L9.34134516,5.0264976 L9.10705037,5.19397758 C9.07669695,5.2156586 9.03627236,5.1862377 9.04746256,5.15070881 L9.1343731,4.8761293 L8.90268935,4.70501251 C8.87270895,4.68281861 8.8881421,4.63530689 8.92544276,4.63498051 L9.21345051,4.63278909 L9.30455738,4.35956173 C9.31630709,4.32417273 9.36628998,4.32417273 9.37813294,4.35956173 Z" id="Shape"></path>
                        <path d="M9.37813294,5.78882992 L9.46923981,6.06205729 L9.75724757,6.0642487 C9.79454823,6.06457508 9.80998138,6.11213343 9.78000097,6.1342807 L9.54831722,6.30539749 L9.63522777,6.57997701 C9.64651122,6.61550589 9.60599337,6.64497341 9.57563996,6.62324578 L9.34134516,6.4557658 L9.10705037,6.62324578 C9.07669695,6.64492679 9.03627236,6.61550589 9.04746256,6.57997701 L9.1343731,6.30539749 L8.90268935,6.1342807 C8.87270895,6.1120868 8.8881421,6.06457508 8.92544276,6.0642487 L9.21345051,6.06205729 L9.30455738,5.78882992 C9.31630709,5.75339429 9.36628998,5.75339429 9.37813294,5.78882992 Z" id="Shape"></path>
                    </g>
                </g>
            </g>
        </g>
    </g>
</svg>