<?xml version="1.0" encoding="UTF-8"?>
<svg width="50px" height="50px" viewBox="0 0 50 50" version="1.1" xmlns="http://www.w3.org/2000/svg" xmlns:xlink="http://www.w3.org/1999/xlink">
    <!-- Generator: Sketch 46 (44423) - http://www.bohemiancoding.com/sketch -->
    <title>salvation</title>
    <desc>Created with Sketch.</desc>
    <defs></defs>
    <g id="web" stroke="none" stroke-width="1" fill="none" fill-rule="evenodd">
        <g id="task-chat-result-fail-last" transform="translate(-487.000000, -163.000000)" fill-rule="nonzero">
            <g id="Group-2" transform="translate(245.000000, 133.000000)">
                <g id="salvation" transform="translate(242.000000, 30.000000)">
                    <g id="Group" transform="translate(5.128205, 5.128205)" fill="#CCC4C1">
                        <path d="M0.336414607,0.336414607 C-0.104757694,0.777586909 -0.104757694,1.49304099 0.336414607,1.93440838 L2.78066327,4.3785595 L4.3785595,2.78056573 L1.9342133,0.336414607 C1.49304099,-0.104757694 0.777586909,-0.104757694 0.336414607,0.336414607 Z" id="Shape"></path>
                        <path d="M0.336414607,37.6668288 C-0.104757694,38.1080011 -0.104952774,38.8234552 0.336414607,39.2648225 C0.557049528,39.4853599 0.846254895,39.5957749 1.13536272,39.5957749 C1.42447055,39.5957749 1.71377346,39.4853599 1.93431084,39.2648225 L4.37836442,36.820769 L2.78046819,35.2227752 L0.336414607,37.6668288 Z" id="Shape"></path>
                        <path d="M36.8204763,35.2225801 L35.2224826,36.8205739 L37.6667312,39.2648225 C37.8873661,39.4853599 38.1765715,39.5957749 38.4656793,39.5957749 C38.7547872,39.5957749 39.0439925,39.4853599 39.2646275,39.2648225 C39.7057998,38.8236502 39.7057998,38.1081961 39.2646275,37.6668288 L36.8204763,35.2225801 Z" id="Shape"></path>
                        <path d="M39.264725,1.93431084 C39.7058973,1.49313853 39.7058973,0.777684448 39.264725,0.336317067 C38.8233576,-0.104757694 38.1081961,-0.104757694 37.6667312,0.336317067 L35.2226776,2.78037065 L36.8206714,4.37836442 L39.264725,1.93431084 Z" id="Shape"></path>
                    </g>
                    <path d="M48.8603989,25 C48.8603989,11.822288 38.177712,1.13960114 25,1.13960114 C11.822288,1.13960114 1.13960114,11.822288 1.13960114,25 C1.13960114,38.177712 11.822288,48.8603989 25,48.8603989 C38.177712,48.8603989 48.8603989,38.177712 48.8603989,25 Z M25,38.7960503 C17.3805965,38.7960503 11.2039497,32.6194035 11.2039497,25 C11.2039497,17.3805965 17.3805965,11.2039497 25,11.2039497 C32.6194035,11.2039497 38.7960503,17.3805965 38.7960503,25 C38.7960503,32.6194035 32.6194035,38.7960503 25,38.7960503 Z" id="Shape" fill="#F6F7F9"></path>
                    <g id="Group" transform="translate(3.703704, 3.703704)" fill="#FF5F4D">
                        <path d="M27.9170999,9.82872919 C29.9262785,10.9912334 31.6013592,12.6663141 32.7638634,14.6754927 L42.5813583,9.00735644 C40.4235941,5.27816004 37.3158979,2.16743544 33.5867015,0.00976894326 C33.5841616,0.013090384 27.9170999,9.82872919 27.9170999,9.82872919 Z" id="Shape"></path>
                        <path d="M9.82872919,27.9170999 L0.013090384,33.5841616 C2.16753313,37.3158979 5.27825773,40.4235941 9.00745413,42.5813583 L14.6755904,32.7638634 C12.6663141,31.6013592 10.9912334,29.9262785 9.82872919,27.9170999 Z" id="Shape"></path>
                        <path d="M14.6767627,9.82794767 L9.00882178,0.0104527693 C5.27962538,2.16821696 2.16890078,5.27601087 0.0112342847,9.00520727 C0.0145557255,9.00764951 9.8295107,14.6743204 9.8295107,14.6743204 C10.9921126,12.6653372 12.6674864,10.9901589 14.6767627,9.82794767 Z" id="Shape"></path>
                        <path d="M42.5826283,33.5844546 L32.7645472,27.9160253 C31.6022384,29.9252039 29.9272554,31.6005776 27.9184676,32.7631796 L33.5855292,42.5788184 C37.3171679,40.4242779 40.4248641,37.313651 42.5826283,33.5844546 Z" id="Shape"></path>
                    </g>
                    <path d="M50,25 C50,20.9578125 49.0207031,16.9771484 47.1609375,13.4207031 C47.2574219,13.2999023 47.3297852,13.1598633 47.3705078,13.0076172 C47.4481445,12.7175781 47.4071289,12.4085938 47.2568359,12.1488281 C46.319043,10.5280273 45.2070312,9.02109375 43.9506836,7.64902344 L44.4873047,7.11240234 C44.9290039,6.67070313 44.9290039,5.95439453 44.4873047,5.5125 C44.0454102,5.07089844 43.3293945,5.07089844 42.8874023,5.5125 L42.3511719,6.04873047 C40.9791016,4.79130859 39.4724609,3.67890625 37.8525391,2.74150391 C37.4420898,2.50390625 36.9368164,2.55449219 36.5797852,2.83916016 C33.0231445,0.979296875 29.0422852,0 25,0 C20.9579102,0 16.9772461,0.979296875 13.4208008,2.8390625 C13.3,2.74248047 13.1599609,2.67021484 13.0075195,2.62949219 C12.7174805,2.55175781 12.4084961,2.59277344 12.1487305,2.74316406 C10.5279297,3.68095703 9.02099609,4.79296875 7.64892578,6.04931641 L7.11230469,5.51269531 C6.67060547,5.07109375 5.95429687,5.07109375 5.51240234,5.51269531 C5.07070313,5.95439453 5.07070313,6.67070312 5.51240234,7.11259766 L6.04873047,7.64892578 C4.79111328,9.02099609 3.67880859,10.5275391 2.74150391,12.1475586 C2.50361328,12.5586914 2.55458984,13.0639648 2.83916016,13.4206055 C0.979296875,16.9769531 0,20.9577148 0,25 C0,29.0420898 0.979296875,33.0228516 2.8390625,36.5792969 C2.74257813,36.7000977 2.6703125,36.8400391 2.62949219,36.9923828 C2.55185547,37.2823242 2.59287109,37.5914063 2.74316406,37.8511719 C3.68095703,39.4719727 4.79296875,40.9789063 6.04931641,42.3509766 L5.51269531,42.8875977 C5.07099609,43.3292969 5.07080078,44.0456055 5.51269531,44.4875 C5.73359375,44.7083008 6.02314453,44.8188477 6.31259766,44.8188477 C6.60205078,44.8188477 6.89169922,44.7083008 7.1125,44.4875 L7.64882812,43.9511719 C9.02089844,45.2085937 10.5274414,46.3209961 12.1474609,47.2583984 C12.3241211,47.3606445 12.5183594,47.409668 12.7109375,47.409668 C12.9658203,47.409668 13.2171875,47.3231445 13.4205078,47.1609375 C16.9770508,49.0207031 20.9578125,50 25,50 C29.0420898,50 33.0227539,49.0207031 36.5791992,47.1609375 C36.7,47.2575195 36.8400391,47.3297852 36.9922852,47.3705078 C37.0885742,47.3962891 37.1867188,47.4089844 37.2845703,47.4089844 C37.4817383,47.4089844 37.6774414,47.3574219 37.8510742,47.2568359 C39.471875,46.319043 40.9788086,45.2070312 42.3508789,43.9506836 L42.8875,44.4873047 C43.1083984,44.7081055 43.3979492,44.8186523 43.6874023,44.8186523 C43.9768555,44.8186523 44.2664062,44.7081055 44.4873047,44.4873047 C44.9290039,44.0456055 44.9290039,43.3292969 44.4873047,42.8874023 L43.9510742,42.3511719 C45.2084961,40.9791016 46.3208984,39.4724609 47.2583008,37.8525391 C47.4958984,37.4420898 47.4453125,36.9368164 47.1605469,36.5797852 C49.0206055,33.0231445 50,29.0422852 50,25 Z M45.2339844,35.3757813 L38.5066406,31.4916992 C39.4550781,29.5265625 39.9868164,27.3241211 39.9868164,24.9998047 C39.9868164,22.6754883 39.4550781,20.4732422 38.5066406,18.5081055 L45.2338867,14.6241211 C46.8730469,17.8183594 47.7375977,21.3810547 47.7375977,24.9999023 C47.7375977,28.61875 46.8730469,32.1814453 45.2339844,35.3757813 Z M25,37.7243164 C17.9837891,37.7243164 12.2756836,32.0162109 12.2756836,25 C12.2756836,17.9837891 17.9837891,12.2756836 25,12.2756836 C32.0162109,12.2756836 37.7243164,17.9837891 37.7243164,25 C37.7243164,32.0162109 32.0162109,37.7243164 25,37.7243164 Z M37.3714844,16.5511719 C36.3181641,15.0137695 34.9863281,13.6818359 33.4488281,12.6285156 L37.6853516,5.29042969 C40.4947266,7.10283203 42.8938477,9.50283203 44.7077148,12.3155273 L37.3714844,16.5511719 Z M35.3758789,4.76601562 L31.4917969,11.4933594 C29.5266602,10.5449219 27.3242188,10.0131836 24.9999023,10.0131836 C22.6756836,10.0131836 20.4733398,10.5450195 18.5082031,11.4933594 L14.6241211,4.76611328 C17.8185547,3.12695312 21.38125,2.26240234 25,2.26240234 C28.6186523,2.26240234 32.1814453,3.12695312 35.3758789,4.76601562 Z M12.3155273,5.29208984 L16.5512695,12.6285156 C15.0138672,13.6818359 13.6819336,15.0136719 12.6286133,16.5511719 L5.29052734,12.3144531 C7.10292969,9.50507812 9.50292969,7.10615234 12.3155273,5.29208984 Z M4.76601562,14.6241211 L11.4933594,18.5082031 C10.5450195,20.4733398 10.0131836,22.6758789 10.0131836,25.0000977 C10.0131836,27.3243164 10.5450195,29.5266602 11.4933594,31.4917969 L4.76601562,35.3758789 C3.12695312,32.1814453 2.26240234,28.61875 2.26240234,25 C2.26240234,21.3811523 3.12695312,17.818457 4.76601562,14.6241211 Z M12.6285156,33.4488281 C13.6818359,34.9862305 15.0136719,36.3181641 16.5511719,37.3714844 L12.3144531,44.7094727 C9.50507812,42.896875 7.10595703,40.496875 5.29208984,37.6844727 L12.6285156,33.4488281 Z M14.6242188,45.2339844 L18.5083008,38.5066406 C20.4734375,39.4550781 22.6758789,39.9868164 25,39.9868164 C27.3242187,39.9868164 29.5265625,39.4550781 31.4916992,38.5066406 L35.3757813,45.2339844 C32.1814453,46.8731445 28.61875,47.7375977 25,47.7375977 C21.38125,47.7375977 17.818457,46.8730469 14.6242188,45.2339844 Z M37.6844727,44.7079102 L33.4488281,37.3714844 C34.9862305,36.3181641 36.3181641,34.9863281 37.3714844,33.4488281 L44.7095703,37.6853516 C42.8970703,40.4949219 40.4970703,42.894043 37.6844727,44.7079102 Z" id="Shape" fill="#000000"></path>
                </g>
            </g>
        </g>
    </g>
</svg>