<?xml version="1.0" encoding="UTF-8"?>
<svg width="439px" height="71px" viewBox="0 0 439 71" version="1.1" xmlns="http://www.w3.org/2000/svg" xmlns:xlink="http://www.w3.org/1999/xlink">
    <!-- Generator: Sketch 46.1 (44463) - http://www.bohemiancoding.com/sketch -->
    <title>logo_white</title>
    <desc>Created with Sketch.</desc>
    <defs></defs>
    <g id="landing" stroke="none" stroke-width="1" fill="none" fill-rule="evenodd">
        <path d="M1.3684,50.44952 L0,39.66072 L7.9024,38.67512 L8.6592,44.14432 C11.4972,45.10352 14.4628,45.58752 17.5472,45.58752 C20.6404,45.58752 23.1836,45.05512 25.1856,43.99032 C27.1832,42.92992 28.1864,41.40752 28.1864,39.43192 C28.1864,37.86552 27.654,36.58512 26.5936,35.59512 C25.5288,34.60952 23.5004,33.86152 20.5128,33.35552 L15.1184,32.36552 C5.544,30.64512 0.7612,26.16152 0.7612,18.91912 C0.7612,14.46192 2.5168,11.06512 6.0412,8.73752 C9.5612,6.40992 13.9304,5.24392 19.1444,5.24392 C24.2616,5.24392 28.974,6.23392 33.2772,8.20952 L34.7952,19.98392 L26.2108,20.89472 L25.2252,13.82832 C22.9944,13.11992 20.8428,12.76352 18.766,12.76352 C15.928,12.76352 13.6884,13.26072 12.0428,14.24632 C10.3972,15.23632 9.5744,16.51232 9.5744,18.08312 C9.5744,19.75512 10.1552,21.05752 11.3212,21.99472 C12.4872,22.93192 14.5596,23.65792 17.5472,24.15952 L22.792,25.07032 C27.7552,25.83152 31.328,27.28792 33.506,29.44392 C35.684,31.59552 36.7708,34.51712 36.7708,38.21752 C36.7708,43.84072 34.936,47.76552 31.262,49.99192 C27.5924,52.22272 23.276,53.33592 18.3084,53.33592 C11.8756,53.33592 6.2304,52.37232 1.3684,50.44952 M66.4378,42.7768 C67.9338,40.8496 68.6774,38.0908 68.6774,34.496 C68.6774,30.998 67.9822,28.292 66.5918,26.3648 C65.197,24.442 63.2346,23.4784 60.7046,23.4784 C59.3362,23.4784 58.0338,23.716 56.7886,24.2 C55.5478,24.684 54.4478,25.3528 53.4842,26.2108 L53.4842,44.5236 C55.4114,45.2848 57.585,45.6632 60.0182,45.6632 C62.8034,45.6632 64.9462,44.6996 66.4378,42.7768 L66.4378,42.7768 Z M37.6046,61.0852 L43.989,61.0852 L43.989,26.136 L36.773,23.7072 L39.281,15.9544 L50.215,19.6812 C51.9398,18.414 53.7746,17.4284 55.7238,16.7156 C57.6774,16.0072 59.5122,15.6508 61.237,15.6508 C66.6006,15.6508 70.8334,17.314 73.9222,20.6316 C77.011,23.9448 78.5554,28.5208 78.5554,34.342 C78.5554,38.192 77.8074,41.5492 76.3158,44.4092 C74.8198,47.2736 72.6814,49.478 69.8962,51.018 C67.1066,52.5624 63.8682,53.3368 60.1722,53.3368 C57.6906,53.3368 55.5082,53.0816 53.6338,52.5756 L53.6338,61.0852 L60.0182,61.0852 L60.0182,68.684 L37.6046,68.684 L37.6046,61.0852 Z M105.03812,25.718 C103.54212,24.2264 101.53132,23.4784 98.99692,23.4784 C96.61652,23.4784 94.57492,24.2352 92.88092,25.7576 C91.18252,27.2756 90.28492,29.2028 90.18372,31.5304 L107.27772,31.5304 C107.27772,29.15 106.52972,27.214 105.03812,25.718 M107.77052,51.744 C105.26252,52.7032 102.76772,53.1872 100.29052,53.1872 C96.38772,53.1872 92.95572,52.3952 89.99452,50.8288 C87.02892,49.258 84.74972,47.0536 83.15692,44.22 C81.55972,41.382 80.76332,38.1656 80.76332,34.5708 C80.76332,30.822 81.50692,27.5176 83.00732,24.6532 C84.49892,21.7932 86.61092,19.58 89.34772,18.0092 C92.08012,16.4384 95.19972,15.6508 98.69332,15.6508 C102.34092,15.6508 105.53092,16.3724 108.26772,17.8156 C111.00012,19.2588 113.11652,21.3136 114.60812,23.9712 C116.10412,26.6288 116.85212,29.7088 116.85212,33.2024 C116.85212,34.826 116.69812,36.3924 116.39452,37.9148 L89.95492,37.9148 C90.21012,40.4448 91.29692,42.372 93.22412,43.6876 C95.14692,45.0076 97.50092,45.6632 100.29052,45.6632 C104.49252,45.6632 108.34252,44.3212 111.83612,41.6372 L114.95132,47.41 C112.67212,49.3372 110.27852,50.7804 107.77052,51.744 M130.94444,38.67424 C130.10844,39.48384 129.69044,40.64544 129.69044,42.16784 C129.69044,44.85624 131.51204,46.19384 135.15964,46.19384 C137.69404,46.19384 140.07444,45.53824 142.30084,44.21824 L142.30084,37.45544 L134.55244,37.45544 C132.98164,37.45544 131.78044,37.86464 130.94444,38.67424 M134.85604,53.18544 C129.94124,53.18544 126.21884,52.25704 123.68884,50.40904 C121.15884,48.56544 119.88724,45.86384 119.88724,42.31744 C119.88724,38.72264 121.10604,36.01224 123.53924,34.19064 C125.96804,32.36904 129.56724,31.45384 134.32804,31.45384 L142.30084,31.45384 C142.30084,28.66864 141.70684,26.54344 140.51884,25.07384 C139.32644,23.60424 137.76884,22.86944 135.84604,22.86944 C133.76484,22.86944 131.82004,23.17304 129.99404,23.78464 L129.31204,27.35304 L121.33484,26.36304 L122.77804,17.85784 C126.92724,16.38824 131.41084,15.65344 136.22444,15.65344 C141.28884,15.65344 145.17844,16.99544 147.88884,19.67944 C150.59484,22.36344 151.95004,26.26624 151.95004,31.37904 L151.95004,43.76064 L158.10564,45.73624 L155.44804,53.63864 L145.79884,50.37384 C142.15124,52.24384 138.50364,53.18544 134.85604,53.18544 Z M160.842,0.077 L175.2036,4.939 L175.2036,30.9254 L180.2152,30.9254 L183.788,24.8446 L179.9864,24.8446 L179.9864,17.171 L199.1308,17.171 L199.1308,24.8446 L193.5868,24.8446 L186.9032,34.5686 L193.5868,43.9934 L199.8172,43.9934 L199.8172,51.6626 L188.9536,51.6626 L180.598,38.5198 L175.2036,38.5198 L175.2036,43.9934 L177.408,43.9934 L177.408,51.6626 L159.17,51.6626 L159.17,43.9934 L165.5544,43.9934 L165.5544,10.2586 L158.334,7.8254 L160.842,0.077 Z M222.2264,30.46648 L232.4916,30.46648 L227.3964,15.95528 L222.2264,30.46648 Z M201.6432,51.66568 L201.6432,43.15168 L209.1628,43.15168 L220.2596,15.42288 L214.3372,15.42288 L214.3372,6.91768 L232.5664,6.91768 L246.6244,43.15168 L253.3036,43.15168 L253.3036,51.66568 L233.1692,51.66568 L233.1692,43.15168 L236.8916,43.15168 L234.6168,36.69688 L219.9516,36.69688 L217.6768,43.15168 L221.8568,43.15168 L221.8568,51.66568 L201.6432,51.66568 Z M306.94532,2.12696 C307.95732,3.13896 308.46772,4.45896 308.46772,6.07816 C308.46772,7.70176 307.95732,9.00416 306.94532,9.98976 C305.93332,10.97976 304.61332,11.47256 302.99412,11.47256 C301.37492,11.47256 300.06812,10.97976 299.08252,9.98976 C298.09692,9.00416 297.60412,7.70176 297.60412,6.07816 C297.60412,4.45896 298.09692,3.13896 299.08252,2.12696 C300.06812,1.11496 301.37492,0.60896 302.99412,0.60896 C304.61332,0.60896 305.93332,1.11496 306.94532,2.12696 L306.94532,2.12696 Z M292.66292,17.17056 L308.62172,17.17056 L308.62172,43.99296 L314.92252,43.99296 L314.92252,51.66656 L292.66292,51.66656 L292.66292,43.99296 L298.96812,43.99296 L298.96812,24.84416 L292.66292,24.84416 L292.66292,17.17056 Z M317.6602,51.66436 L317.6602,43.99076 L324.0402,43.99076 L324.0402,10.25596 L316.8242,7.82716 L319.3278,0.07876 L333.6938,4.94076 L333.6938,43.99076 L340.0738,43.99076 L340.0738,51.66436 L317.6602,51.66436 Z M357.92328,2.12696 C358.93528,3.13896 359.44568,4.45896 359.44568,6.07816 C359.44568,7.70176 358.93528,9.00416 357.92328,9.98976 C356.91128,10.97976 355.59128,11.47256 353.97208,11.47256 C352.35288,11.47256 351.04608,10.97976 350.06048,9.98976 C349.07488,9.00416 348.58208,7.70176 348.58208,6.07816 C348.58208,4.45896 349.07488,3.13896 350.06048,2.12696 C351.04608,1.11496 352.35288,0.60896 353.97208,0.60896 C355.59128,0.60896 356.91128,1.11496 357.92328,2.12696 L357.92328,2.12696 Z M343.64088,17.17056 L359.59968,17.17056 L359.59968,43.99296 L365.90048,43.99296 L365.90048,51.66656 L343.64088,51.66656 L343.64088,43.99296 L349.94608,43.99296 L349.94608,24.84416 L343.64088,24.84416 L343.64088,17.17056 Z M375.43968,49.61176 C373.23088,47.23576 372.13088,43.68936 372.13088,38.97696 L372.13088,24.84416 L365.82568,24.84416 L365.82568,17.17056 L372.13088,17.17056 L372.13088,11.01936 L381.40168,8.05376 L381.40168,17.17056 L390.51848,17.17056 L390.51848,24.84416 L381.40168,24.84416 L381.40168,36.85176 C381.40168,39.58416 381.81968,41.67416 382.65568,43.11736 C383.49168,44.56056 384.74568,45.28216 386.41328,45.28216 C387.78608,45.28216 389.43168,44.77616 391.35448,43.76416 L393.18048,50.90536 C390.14448,52.42336 387.40328,53.18456 384.97448,53.18456 C380.82088,53.18456 377.63968,51.99216 375.43968,49.61176 Z M278.2252,42.6624 C279.6948,40.7616 280.434,37.9632 280.434,34.2672 C280.434,30.7208 279.8224,28.0368 278.608,26.2108 C277.3892,24.3892 275.5896,23.4784 273.2092,23.4784 C269.8168,23.4784 267.1592,24.288 265.2364,25.9116 L265.2364,44.5236 C267.0096,45.1836 269.1876,45.5092 271.7704,45.5092 C274.604,45.5092 276.76,44.5588 278.2252,42.6624 M255.662,48.928 L255.662,10.868 L247.9884,8.206 L250.7956,0 L265.2364,4.9412 L265.2364,17.8552 C267.6168,16.39 270.3008,15.6508 273.2928,15.6508 C278.8632,15.6508 283.0784,17.2216 285.934,20.3632 C288.7984,23.5048 290.2328,28.138 290.2328,34.2672 C290.2328,40.4932 288.6752,45.2056 285.56,48.3956 C282.4404,51.5856 277.8732,53.1872 271.8452,53.1872 C265.562,53.1872 260.172,51.766 255.662,48.928 Z M438.30776,17.17012 L438.30776,24.84812 L432.30616,24.84812 L417.79496,57.06052 C415.61696,61.92252 413.39496,65.38972 411.14656,67.46652 C408.88936,69.54332 406.26696,70.58172 403.27936,70.58172 C400.95176,70.58172 398.51856,70.02292 395.98416,68.91412 L397.81016,61.39012 C398.87496,61.84332 399.79896,62.16012 400.58656,62.34052 C401.36976,62.51652 402.21896,62.60452 403.12536,62.60452 C404.23856,62.60452 405.20216,62.30092 406.01616,61.69372 C406.82576,61.08652 407.59576,60.10972 408.33496,58.76772 C409.06976,57.42572 409.98936,55.41052 411.10696,52.72652 L398.03896,24.84812 L392.42016,24.84812 L392.42016,17.17012 L411.94296,17.17012 L411.94296,24.84812 L407.83776,24.84812 L415.28256,42.77812 L422.80656,24.84812 L419.00936,24.84812 L419.46256,17.17012 L438.30776,17.17012 Z" id="logo_white" fill="#FFFFFF"></path>
    </g>
</svg>