<?xml version="1.0" encoding="UTF-8"?>
<svg width="25px" height="25px" viewBox="0 0 25 25" version="1.1" xmlns="http://www.w3.org/2000/svg" xmlns:xlink="http://www.w3.org/1999/xlink">
    <!-- Generator: Sketch 46 (44423) - http://www.bohemiancoding.com/sketch -->
    <title>play-button</title>
    <desc>Created with Sketch.</desc>
    <defs></defs>
    <g id="web" stroke="none" stroke-width="1" fill="none" fill-rule="evenodd">
        <g id="task-chat-first" transform="translate(-317.000000, -382.000000)" fill-rule="nonzero">
            <g id="Group-10" transform="translate(257.000000, 84.000000)">
                <g id="player">
                    <g transform="translate(0.000000, 91.000000)" id="Group-6">
                        <g>
                            <g id="Group" transform="translate(57.000000, 207.000000)">
                                <g id="play-button" transform="translate(3.000000, 0.000000)">
                                    <circle id="Oval" fill="#8996A8" cx="12.1849469" cy="12.1849469" r="12.1849469"></circle>
                                    <g id="text-file-square-filled-button" transform="translate(7.000000, 7.000000)" fill="#FFFFFF">
                                        <path d="M10.7127967,0.00528713533 L0.29271757,0 L0.292602688,0 C0.134066485,0 0.00551430272,0.128500376 0.00539942142,0.287114436 L0,10.7125408 C0,10.7887445 0.0302137837,10.8619598 0.0839782352,10.9159805 C0.137972449,10.9698863 0.210922079,11 0.287203267,11 L7.93634531,10.9995402 C8.01274138,10.9995402 8.08592077,10.9690818 8.13980011,10.9149461 L10.9162515,8.12161456 C10.9699011,8.06759383 11,7.99472331 11,7.91874948 L11,0.292631447 C10.9998851,0.134017387 10.8714478,0.00540207306 10.7127967,0.00528713533 Z M1.36398575,1.41637758 C1.36398575,1.32109421 1.44118599,1.24397099 1.53630771,1.24397099 L8.66032731,1.24397099 C8.75544903,1.24397099 8.83264927,1.32109421 8.83264927,1.41637758 L8.83264927,1.92083925 C8.83264927,2.01612263 8.75544903,2.09324584 8.66032731,2.09324584 L1.53630771,2.09324584 C1.44118599,2.09324584 1.36398575,2.01612263 1.36398575,1.92083925 L1.36398575,1.41637758 Z M1.36398575,3.62559559 C1.36398575,3.53031221 1.44118599,3.453189 1.53630771,3.453189 L8.66032731,3.453189 C8.75544903,3.453189 8.83264927,3.53031221 8.83264927,3.62559559 L8.83264927,4.13005726 C8.83264927,4.22534063 8.75544903,4.30246385 8.66032731,4.30246385 L1.53630771,4.30246385 C1.44118599,4.30246385 1.36398575,4.22534063 1.36398575,4.13005726 L1.36398575,3.62559559 Z M4.87567754,6.33927527 C4.87567754,6.43467358 4.7984773,6.51168185 4.70335558,6.51168185 L1.53630771,6.51168185 C1.44118599,6.51168185 1.36398575,6.43467358 1.36398575,6.33927527 L1.36398575,5.83481359 C1.36398575,5.73964516 1.44118599,5.662407 1.53630771,5.662407 L4.70335558,5.662407 C4.7984773,5.662407 4.87567754,5.73964516 4.87567754,5.83481359 L4.87567754,6.33927527 Z M10.0879573,7.56738485 L7.57676682,10.0799235 C7.54379589,10.1129106 7.49968147,10.1303812 7.45487776,10.1303812 C7.43270566,10.1303812 7.41007405,10.1261285 7.38893589,10.1171633 C7.32437259,10.0906127 7.2825558,10.0277418 7.2825558,9.95797459 L7.2825558,7.44555087 C7.2825558,7.35038243 7.35975603,7.27314428 7.45487776,7.27314428 L9.96595336,7.27314428 C10.0355714,7.27314428 10.0984115,7.31509655 10.1251788,7.37957661 C10.1520611,7.44405667 10.1371265,7.51819151 10.0879573,7.56738485 Z" id="Shape"></path>
                                    </g>
                                </g>
                            </g>
                        </g>
                    </g>
                </g>
            </g>
        </g>
    </g>
</svg>