<?xml version="1.0" encoding="UTF-8"?>
<svg width="26px" height="24px" viewBox="0 0 26 24" version="1.1" xmlns="http://www.w3.org/2000/svg" xmlns:xlink="http://www.w3.org/1999/xlink">
    <!-- Generator: Sketch 45.2 (43514) - http://www.bohemiancoding.com/sketch -->
    <title>Shape</title>
    <desc>Created with Sketch.</desc>
    <defs></defs>
    <g id="app-4" stroke="none" stroke-width="1" fill="none" fill-rule="evenodd">
        <g id="task-chat-result-fail" transform="translate(-500.000000, -519.000000)" fill-rule="nonzero" fill="#FFFFFF">
            <g id="Group-3" transform="translate(485.000000, 503.000000)">
                <path d="M39.4216737,32.9584307 C40.7835839,30.0987342 40.9505045,26.880001 39.8918409,23.8943267 C37.7065757,17.7322117 30.9145716,14.4972813 24.7524566,16.6829964 C21.7694818,17.7412101 19.4010988,19.8841828 18.0522363,22.6786407 L16.747916,19.0005384 C16.5818952,18.5326207 16.0680857,18.2874139 15.5992682,18.4534347 C15.1309007,18.6194555 14.8856939,19.1337149 15.0521646,19.6025324 L17.1447461,25.5036933 C17.2243821,25.7282038 17.3904029,25.9122214 17.605465,26.0152532 C17.7273935,26.073293 17.8596702,26.1025379 17.9923969,26.1025379 C18.094079,26.1025379 18.1957611,26.0854409 18.292944,26.050797 L24.5225471,23.841236 C24.9909146,23.6752153 25.2361214,23.1605059 25.0696507,22.6921384 C24.90363,22.2242207 24.3880208,21.9790139 23.921003,22.1450347 L19.5603708,23.6918623 C20.683823,21.2091995 22.7426605,19.3051347 25.3531008,18.3787478 C30.5807304,16.5250742 36.3406162,19.2691411 38.1947397,24.4963207 C40.0488633,29.7230504 37.3043465,35.484286 32.0776168,37.3384095 C28.293783,38.6791734 24.0811748,37.6484049 21.3461064,34.7081726 C21.0077659,34.3437368 20.4381662,34.3239403 20.0741803,34.6622807 C19.7101944,35.0006211 19.689948,35.5702208 20.0282884,35.9337568 C22.3143359,38.3912241 25.4754793,39.7175906 28.7126593,39.7175906 C30.0403755,39.7175906 31.3811394,39.4944299 32.678261,39.033711 C35.6652851,37.9754973 38.0593136,35.8181272 39.4216737,32.9584307 Z" id="Shape"></path>
            </g>
        </g>
    </g>
</svg>