<?xml version="1.0" encoding="UTF-8"?>
<svg width="57px" height="44px" viewBox="0 0 57 44" version="1.1" xmlns="http://www.w3.org/2000/svg" xmlns:xlink="http://www.w3.org/1999/xlink">
    <!-- Generator: Sketch 46 (44423) - http://www.bohemiancoding.com/sketch -->
    <title>Shape</title>
    <desc>Created with Sketch.</desc>
    <defs></defs>
    <g id="landing" stroke="none" stroke-width="1" fill="none" fill-rule="evenodd">
        <g id="start" transform="translate(-691.000000, -2071.000000)" fill-rule="nonzero" fill="#328AFF">
            <g id="arrows" transform="translate(177.000000, 1882.000000)">
                <g id="Group-21" transform="translate(499.000000, 144.000000)">
                    <path d="M46.6789128,93.5104656 C59.2388655,77.2982792 63.8180148,49.1262831 44.7164203,35.8376057 C43.5387109,35.0402851 42.2305963,36.9006999 43.277259,37.8309073 C58.5847013,52.4484524 56.7530415,75.4378643 44.3239217,91.3842772 C43.9314232,90.9853997 43.4080919,90.7196262 43.0155933,90.4540698 C43.0155933,89.125202 41.3147664,88.0618907 40.2678899,89.2580888 C37.9128988,91.9156071 37.1279018,95.2377765 36.2120719,98.6928326 C35.9504062,99.7559268 36.7354033,100.951908 37.9128988,100.951908 C41.5762183,100.951908 45.3703707,100.154587 48.7720245,98.5599458 C49.6878544,98.0283987 49.8186872,96.5664271 49.164523,95.9022104 C48.1180741,94.9722201 47.4639099,94.3077862 46.6789128,93.5104656 Z M41.5764321,92.7129278 C42.7539277,93.776022 43.8005904,94.9720029 44.8472531,96.1679839 C43.277259,96.699531 41.5764321,96.9653046 39.8756052,97.2310781 C40.2681037,95.6366539 40.7914351,94.0417955 41.5764321,92.7129278 Z" id="Shape" transform="translate(46.876267, 68.297838) rotate(52.000000) translate(-46.876267, -68.297838) "></path>
                </g>
            </g>
        </g>
    </g>
</svg>