<?xml version="1.0" encoding="UTF-8"?>
<svg width="83px" height="95px" viewBox="0 0 83 95" version="1.1" xmlns="http://www.w3.org/2000/svg" xmlns:xlink="http://www.w3.org/1999/xlink">
    <!-- Generator: Sketch 46 (44423) - http://www.bohemiancoding.com/sketch -->
    <title>star</title>
    <desc>Created with Sketch.</desc>
    <defs></defs>
    <g id="web" stroke="none" stroke-width="1" fill="none" fill-rule="evenodd">
        <g id="task-completed" transform="translate(-471.000000, -167.000000)" fill-rule="nonzero">
            <g id="Group-3" transform="translate(112.000000, 110.000000)">
                <g id="Group-2" transform="translate(226.000000, 57.000000)">
                    <g id="star" transform="translate(133.000000, 0.000000)">
                        <circle id="Oval" fill="#FF4B4E" cx="5.00986381" cy="65.3901265" r="2.78179961"></circle>
                        <circle id="Oval" fill="#FFCA54" cx="17.5180739" cy="33.3087743" r="2.78179961"></circle>
                        <circle id="Oval" fill="#00CDB3" cx="55.348035" cy="26.9742704" r="2.78179961"></circle>
                        <g id="Group" transform="translate(25.875486, 10.350195)" fill="#57BAE5">
                            <circle id="Oval" cx="52.576216" cy="55.0399319" r="2.78179961"></circle>
                            <circle id="Oval" cx="2.84593385" cy="2.91949416" r="2.78179961"></circle>
                        </g>
                        <path d="M76.2665175,46.3601848 C74.888463,46.1600195 53.9781128,43.1214981 52.692286,42.9346401 L42.1493191,21.5725778 C41.1830545,19.613249 38.3787062,19.6115856 37.410963,21.5725778 L26.8679961,42.9346401 L3.29357977,46.3601848 C2.29829767,46.5047179 1.47157588,47.2018774 1.16070039,48.1585311 C0.850009728,49.115 1.10931907,50.1648054 1.82939689,50.8669553 L18.8878113,67.4947276 L14.8608463,90.974144 C14.4919358,93.1269844 16.7588132,94.7769163 18.6944844,93.7594553 L39.7802335,82.6740272 C62.7207004,94.7345914 61.1739008,94.0625681 62.0950681,94.0625681 C63.7235603,94.0625681 64.9774125,92.5946887 64.6994358,90.9737743 L60.6724708,67.4947276 L77.73107,50.8669553 C79.2956128,49.3415953 78.4310019,46.674572 76.2665175,46.3601848 Z" id="Shape" fill="#FFCA54"></path>
                        <g id="Group" transform="translate(0.924125, 19.961089)" fill="#F99830">
                            <path d="M32.6411868,19.9248638 L41.4523444,2.07151751 L41.2253794,1.61167315 C40.2591148,-0.347655642 37.4547665,-0.349319066 36.4870233,1.61167315 L25.9438716,22.9737354 L29.5128405,22.3399708 C29.7640175,22.2924708 31.6791732,21.8729183 32.6411868,19.9248638 Z" id="Shape"></path>
                            <path d="M19.628035,70.0022471 L23.2141926,49.0935603 C23.635963,46.630214 22.1368482,45.0433074 22.1320428,45.0385019 L6.59640078,29.8948735 C5.34236381,28.6728113 5.60167315,26.5780058 7.13664397,25.7065564 L2.36927043,26.3990953 C1.37398833,26.5436284 0.547266537,27.2407879 0.236391051,28.1974416 C-0.0742996109,29.1539105 0.185009728,30.203716 0.905087549,30.9058658 L17.9635019,47.5336381 L13.936537,71.0130545 C13.5676265,73.1658949 15.8345039,74.8158268 17.7701751,73.7983658 L20.4445914,72.3925875 C19.7897568,71.790428 19.4751848,70.8923638 19.628035,70.0022471 Z" id="Shape"></path>
                        </g>
                        <g id="Group" fill="#231F20">
                            <path d="M61.8961965,67.6575584 L78.1424903,51.8215759 C80.5733074,49.4515661 79.23,45.3201751 75.8715467,44.8324222 L65.5440856,43.331644 C64.7286381,43.2120623 63.9691926,43.7787354 63.8509047,44.5952918 C63.7320623,45.4118482 64.2978113,46.1701848 65.1145525,46.2888424 L75.4420136,47.7896206 C76.351537,47.9214008 76.7150875,49.0401459 76.0569261,49.6816732 L59.2480253,66.0660311 C58.8959339,66.4094358 58.7355058,66.9036576 58.818677,67.3884533 L62.7864981,90.5239105 C62.9428599,91.4360214 61.9795525,92.1156226 61.176858,91.6934825 L40.400321,80.7703307 C39.9650584,80.5417023 39.4449611,80.5417023 39.0096984,80.7703307 L18.2331615,91.6934825 C17.4217802,92.1195039 16.4680837,91.4317704 16.6233366,90.5239105 L20.5915272,67.3884533 C20.6746984,66.9038424 20.5139008,66.4096206 20.1619942,66.0660311 L3.35327821,49.681858 C2.69567121,49.0405156 3.05811284,47.9214008 3.96782101,47.7896206 L27.1967996,44.4141634 C27.6834436,44.3435603 28.1041051,44.0378599 28.3218288,43.5970525 L38.7102821,22.547714 C39.1168969,21.7239494 40.2931226,21.7237646 40.6997374,22.547714 L51.0880058,43.5968677 C51.3057296,44.0376751 51.7262062,44.3433755 52.2132198,44.4139786 L60.0486868,45.5525 C60.8626556,45.6709728 61.6233949,45.1055934 61.7418677,44.2888521 C61.8607101,43.4724805 61.2949611,42.7139591 60.4782198,42.5954864 L53.4199416,41.569893 L43.3793288,21.2252918 C41.8772568,18.180856 37.532393,18.1814105 36.0308755,21.225107 L25.9900778,41.569893 L3.53791829,44.8324222 C0.178725681,45.3201751 -1.16310311,49.4521206 1.26715953,51.8217607 L17.5134533,67.6575584 L13.6783366,90.0189689 C13.2367899,92.5904377 15.250642,94.8133268 17.7126946,94.8133268 C19.0998054,94.8133268 17.9500097,95.2179086 39.7048249,83.7809436 L59.7869747,94.3386965 C62.7798444,95.9089689 66.3075973,93.3742802 65.7313132,90.0189689 L61.8961965,67.6575584 Z" id="Shape"></path>
                            <path d="M71.5695623,35.3279864 C71.82,35.3438813 72.0595331,35.351644 72.2905642,35.351644 C79.6146206,35.3510895 77.1902724,28.0233366 79.1113424,25.2694455 C79.5832004,24.5926167 79.416858,23.661284 78.7403988,23.1894261 C78.06357,22.7177529 77.1322374,22.8835409 76.6601946,23.5601848 C75.5671401,25.1276848 75.3547763,26.9923833 75.1675486,28.6378794 C74.8448444,31.473463 74.7221206,32.5352821 71.7597471,32.3460214 C68.495,32.1377237 66.0562354,32.8369163 64.5088813,34.423823 C63.2420914,35.7229572 63.0960798,37.1446304 63.0836965,37.3026556 L66.0625195,37.5383074 C66.0628891,37.5381226 66.3719163,34.9978891 71.5695623,35.3279864 Z" id="Shape"></path>
                            <path d="M47.1334922,17.0129475 L48.3387354,19.7472471 C49.8051362,19.1010992 52.0250681,16.5697374 49.9313716,11.615321 C49.1671206,9.80607004 49.5386187,9.55803502 51.6410019,8.54390078 C53.6944066,7.55305447 56.7979864,6.05597276 55.9788424,1.41890078 C55.8356031,0.606410506 55.0619261,0.064688716 54.2475875,0.207373541 C53.4350973,0.35098249 52.892821,1.12595331 53.0362451,1.9386284 C53.443784,4.24524319 52.4490564,4.83631323 50.3424222,5.85248054 C48.4503696,6.76514591 45.2837646,8.29290856 47.1789591,12.7784241 C48.6204086,16.1904767 47.1334922,17.0129475 47.1334922,17.0129475 Z" id="Shape"></path>
                            <path d="M8.91983463,15.8483658 C11.1957685,16.3651362 11.6136576,16.5235311 11.2743191,18.4579086 C10.0082685,25.6760603 15.8753502,27.5732879 16.3984047,24.8386187 C16.5532879,24.0281615 16.0219163,23.245428 15.2112743,23.0905447 C15.1948249,23.0874027 13.5798249,22.61 14.2176556,18.9741245 C15.0584241,14.1779183 11.630107,13.3994358 9.58150778,12.9342315 C7.30058366,12.4161673 6.19865759,12.0635214 6.0785214,9.72400778 C6.0361965,8.90005837 5.33811284,8.265 4.50972763,8.30843385 C3.68577821,8.35075875 3.05182879,9.05309339 3.09433852,9.87722763 C3.33608949,14.5800973 6.69620623,15.3430545 8.91983463,15.8483658 Z" id="Shape"></path>
                            <path d="M14.7749027,36.6526265 C15.5746401,37.4523638 16.6381226,37.8929864 17.769251,37.8929864 C21.5468872,37.8929864 23.4115856,33.3121012 20.7639689,30.66393 C19.9640467,29.8641926 18.9005642,29.42357 17.769251,29.42357 C14.0232198,29.42357 12.1025195,33.9806128 14.7749027,36.6526265 Z M17.7694358,32.4114494 C18.4579086,32.4114494 19.0164494,32.9688813 19.0164494,33.6582782 C19.0164494,34.7596498 17.6760992,35.3272471 16.8880058,34.5395233 C16.1026848,33.7543872 16.6656615,32.4114494 17.7694358,32.4114494 Z" id="Shape"></path>
                            <path d="M52.3559047,30.0504961 C54.010642,31.7050486 56.6894942,31.7056031 58.3446012,30.0504961 C59.995642,28.3992704 59.995642,25.7128405 58.3446012,24.0617996 C57.5448638,23.2620623 56.4810117,22.8214397 55.3500681,22.8214397 C51.5914689,22.8212549 49.6953502,27.3897568 52.3559047,30.0504961 Z M55.3500681,28.3024222 C55.0170136,28.3024222 54.7041051,28.1728599 54.4684533,27.9375778 C53.6868288,27.1559533 54.2405642,25.8095039 55.3500681,25.8095039 C55.6829377,25.8095039 55.9958463,25.9390661 56.2313132,26.1743482 C57.0138619,26.9568969 56.4577237,28.3024222 55.3500681,28.3024222 Z" id="Shape"></path>
                            <path d="M8.07444553,62.4556615 C6.4191537,60.8012938 3.74104086,60.8009241 2.08574903,62.4558463 C-0.572772374,65.1145525 1.32020428,69.6852724 5.08009728,69.6852724 C8.83888132,69.6854572 10.7351848,65.1169553 8.07444553,62.4556615 Z M5.08009728,66.697393 C4.74741245,66.697393 4.43431907,66.5676459 4.19885214,66.3319942 C3.41593385,65.5496304 3.97281128,64.2041051 5.08009728,64.2041051 C5.41315175,64.2041051 5.72624514,64.3336673 5.96152724,64.5691342 C6.74444553,65.3513132 6.18664397,66.697393 5.08009728,66.697393 Z" id="Shape"></path>
                            <path d="M78.5383852,61.215856 C74.7796012,61.215856 72.8836673,65.7841732 75.5438521,68.4449125 C77.1995136,70.1005739 79.8772568,70.1000195 81.5327335,68.4450973 C84.1914397,65.7858366 82.3001265,61.215856 78.5383852,61.215856 Z M78.5383852,66.697393 C78.2055156,66.697393 77.8924222,66.5676459 77.6571401,66.3319942 C76.872928,65.5483366 77.4325778,64.2041051 78.5383852,64.2041051 C78.8712549,64.2041051 79.1845331,64.3336673 79.4198152,64.5691342 C80.2025486,65.3514981 79.6449319,66.697393 78.5383852,66.697393 Z" id="Shape"></path>
                            <path d="M28.6260506,17.4184533 C29.757179,17.4184533 30.8204767,16.9780156 31.6203988,16.1780934 C32.4199514,15.378356 32.8607588,14.3146887 32.8607588,13.1835603 C32.8607588,12.0522471 32.4201362,10.9889494 31.6203988,10.1893969 C30.8206615,9.38947471 29.757179,8.94885214 28.6260506,8.94885214 C27.4945525,8.94885214 26.4314397,9.38928988 25.6315175,10.1892121 C24.8317802,10.9887646 24.3909728,12.0522471 24.3909728,13.1835603 C24.3909728,14.3148735 24.8315953,15.3781712 25.6313327,16.1780934 C26.4314397,16.9778307 27.4947374,17.4184533 28.6260506,17.4184533 Z M27.7444358,12.3021304 C27.9797179,12.0666634 28.2929961,11.9371012 28.6260506,11.9371012 C28.9587354,11.9371012 29.271644,12.0666634 29.5072957,12.3023152 C29.7425778,12.5375973 29.8726946,12.8506907 29.8726946,13.1835603 C29.8726946,13.5166148 29.7427626,13.8295233 29.5072957,14.0651751 C29.2718288,14.3004572 28.9587354,14.4302043 28.6260506,14.4302043 C28.2929961,14.4302043 27.9799027,14.3004572 27.7444358,14.0649903 C27.5089689,13.8295233 27.3792218,13.5166148 27.3792218,13.1835603 C27.3794066,12.8506907 27.5089689,12.5375973 27.7444358,12.3021304 Z" id="Shape"></path>
                            <circle id="Oval" cx="5.98758755" cy="29.7967315" r="1.93992218"></circle>
                            <circle id="Oval" cx="70.1170233" cy="69.3291148" r="1.93992218"></circle>
                            <circle id="Oval" cx="7.71588521" cy="81.3845039" r="1.940107"></circle>
                            <path d="M65.7821401,27.7141245 C66.5852043,27.7141245 66.733249,27.3858755 68.9295233,25.1263911 C69.5045136,24.5347665 69.4912062,23.5888327 68.8995817,23.0136576 C68.3083268,22.4384825 67.3622082,22.4519747 66.7868482,23.0435992 L64.7112646,25.1786965 C63.7897276,26.1266634 64.4693288,27.7141245 65.7821401,27.7141245 Z" id="Shape"></path>
                            <path d="M21.5901362,25.3540953 L24.3506809,26.4704377 C25.1156712,26.7796498 25.9869358,26.4103696 26.2957782,25.6455642 C26.6051751,24.8805739 26.2357101,24.009679 25.4709047,23.7004669 L22.7101751,22.5841245 C21.9440759,22.274358 21.0742899,22.6443774 20.7650778,23.4089981 C20.4554961,24.1739883 20.8249611,25.0448833 21.5901362,25.3540953 Z" id="Shape"></path>
                            <path d="M11.8334144,72.7590953 L9.07268482,71.6427529 C8.30640078,71.333356 7.43679961,71.702821 7.12758755,72.4676265 C6.81837549,73.2326167 7.18784047,74.1036965 7.95264591,74.4127237 C10.9364591,75.6194455 10.8871109,75.6384825 11.2728405,75.6384825 C11.8637257,75.6384825 12.4237451,75.2858366 12.6584728,74.7041926 C12.9678696,73.9392023 12.5984047,73.0684922 11.8334144,72.7590953 Z" id="Shape"></path>
                            <path d="M74.8411479,77.8619261 L72.0806031,76.7455837 C71.3143191,76.4363716 70.4445331,76.8058366 70.1355058,77.570642 C69.8261089,78.3356323 70.1955739,79.2067121 70.9603794,79.5157393 C73.9423444,80.721537 73.8953988,80.7414981 74.2807588,80.7414981 C75.9103599,80.7416829 76.3565272,78.4746206 74.8411479,77.8619261 Z" id="Shape"></path>
                        </g>
                    </g>
                </g>
            </g>
        </g>
    </g>
</svg>