<?xml version="1.0" encoding="UTF-8"?>
<svg width="21px" height="21px" viewBox="0 0 21 21" version="1.1" xmlns="http://www.w3.org/2000/svg" xmlns:xlink="http://www.w3.org/1999/xlink">
    <!-- Generator: Sketch 46 (44423) - http://www.bohemiancoding.com/sketch -->
    <title>telegram</title>
    <desc>Created with Sketch.</desc>
    <defs></defs>
    <g id="landing" stroke="none" stroke-width="1" fill="none" fill-rule="evenodd">
        <g id="start" transform="translate(-711.000000, -3242.000000)" fill-rule="nonzero">
            <g id="footer" transform="translate(262.000000, 3242.000000)">
                <g id="telegram" transform="translate(449.000000, 0.000000)">
                    <rect id="Rectangle-path" fill="#B0BCC2" x="0" y="0" width="20.9999093" height="20.9999093" rx="10.4999546"></rect>
                    <path d="M15.0375552,6.07200374 L4.13788808,10.319488 C3.78484607,10.4570782 3.80623388,10.9636976 4.16964792,11.0709943 L6.93937001,11.8888815 L7.97303097,15.1687996 C8.08100725,15.511398 8.5151656,15.6152613 8.76649031,15.3586433 L10.1985083,13.8964749 L13.0082521,15.958897 C13.3521023,16.2112946 13.8418046,16.0237757 13.9291084,15.6062841 L15.7900271,6.70923904 C15.8811578,6.27343547 15.4524001,5.91034333 15.0375552,6.07200374 Z M13.671024,8.04647822 L8.60819186,12.5235417 C8.55772663,12.5681771 8.52560915,12.6299443 8.51809837,12.6968974 L8.32317598,14.4296682 C8.3168097,14.4861778 8.23773201,14.4936528 8.22085066,14.4393606 L7.41887911,11.8551903 C7.38214786,11.7368778 7.43003797,11.608694 7.53529607,11.5434218 L13.5139773,7.83538978 C13.6514602,7.75005311 13.7922335,7.93932455 13.671024,8.04647822 Z" id="Shape" fill="#FFFFFF"></path>
                </g>
            </g>
        </g>
    </g>
</svg>