<?xml version="1.0" encoding="UTF-8"?>
<svg width="12px" height="12px" viewBox="0 0 12 12" version="1.1" xmlns="http://www.w3.org/2000/svg" xmlns:xlink="http://www.w3.org/1999/xlink">
    <!-- Generator: Sketch 45.2 (43514) - http://www.bohemiancoding.com/sketch -->
    <title>time</title>
    <desc>Created with Sketch.</desc>
    <defs></defs>
    <g id="Symbols" stroke="none" stroke-width="1" fill="none" fill-rule="evenodd">
        <g id="card/quest" transform="translate(-10.000000, -11.000000)" fill-rule="nonzero" fill="#FFFFFF">
            <g id="Group" transform="translate(10.000000, 10.000000)">
                <path d="M10.9425547,4.47722017 C10.3416539,3.07627922 9.32053601,2.05741477 7.9078996,1.45493101 C7.20185144,1.15381019 6.46215089,1 5.68937529,1 C4.91673005,1 4.18248615,1.15235757 3.47722017,1.45493101 C2.07627922,2.05581316 1.05063587,3.07402579 0.44867357,4.47722017 C0.14703129,5.1802141 0,5.91671143 0,6.68935667 C0,7.46215089 0.14703129,8.20475668 0.44867357,8.9078996 C1.05063587,10.311094 2.07640958,11.3354151 3.47722017,11.9364462 C4.18261651,12.2390196 4.91671143,12.3912282 5.68937529,12.3912282 C6.46203915,12.3912282 7.20185144,12.237418 7.90778786,11.9364462 C9.32042427,11.3339438 10.3415421,10.3087102 10.9425733,8.9078996 C11.2451281,8.20250325 11.3974857,7.46215089 11.3974857,6.68935667 C11.3974857,5.91671143 11.2452585,5.18259789 10.9425547,4.47722017 Z M10.0328416,9.20702773 C9.5854903,9.97421633 8.97263334,10.5828458 8.20077029,11.0328416 C7.43358169,11.4801929 6.59297987,11.7057961 5.68950566,11.7057961 C5.01031235,11.7057961 4.36222003,11.5749857 3.74522869,11.3069772 C3.12825597,11.0390991 2.59555388,10.6869316 2.14993454,10.2414427 C1.7043152,9.79582333 1.34963364,9.25792533 1.08441862,8.63989108 C0.819985774,8.02411026 0.691838554,7.36869896 0.691838554,6.68937529 C0.691838554,5.78577071 0.913847421,4.94943364 1.35868458,4.1843681 C1.80510473,3.41650906 2.41809205,2.80722779 3.18449847,2.3585356 C3.95077452,1.90986203 4.7859197,1.68545075 5.68937529,1.68545075 C6.59297987,1.68545075 7.4334327,1.91118428 8.20063992,2.3585356 C8.97250298,2.80855005 9.58403768,3.4178127 10.0327113,4.18434948 C10.4813848,4.9507559 10.7056657,5.78577071 10.7056657,6.68935667 C10.7056657,7.59297987 10.4828561,8.43501569 10.0328416,9.20702773 Z M6.05083575,6.6395206 L6.05083575,3.41155526 C6.05083575,3.21839395 5.8825366,3.06259106 5.68935667,3.06259106 C5.50869162,3.06259106 5.34663129,3.21839395 5.34663129,3.41155526 L5.34663129,6.68935667 C5.34663129,6.69561411 5.35912756,6.72060664 5.35912756,6.73922998 C5.34663129,6.851417 5.37788126,6.94488755 5.45259811,7.01973477 L7.31591941,8.8829257 C7.44060269,9.00760898 7.67112242,9.00760898 7.79571259,8.8829257 C7.93900058,8.73961908 7.92957717,8.53168946 7.79571259,8.39687508 L6.05083575,6.6395206 Z" id="time"></path>
            </g>
        </g>
    </g>
</svg>