<?xml version="1.0" encoding="UTF-8"?>
<svg width="21px" height="21px" viewBox="0 0 21 21" version="1.1" xmlns="http://www.w3.org/2000/svg" xmlns:xlink="http://www.w3.org/1999/xlink">
    <!-- Generator: Sketch 46 (44423) - http://www.bohemiancoding.com/sketch -->
    <title>vk</title>
    <desc>Created with Sketch.</desc>
    <defs></defs>
    <g id="landing" stroke="none" stroke-width="1" fill="none" fill-rule="evenodd">
        <g id="start" transform="translate(-680.000000, -3242.000000)">
            <g id="footer" transform="translate(262.000000, 3242.000000)">
                <g id="vk" transform="translate(418.000000, 0.000000)">
                    <circle id="XMLID_11_" fill="#B0BCC2" fill-rule="nonzero" cx="10.425292" cy="10.425292" r="10.425292"></circle>
                    <path d="M10.0314956,14.9977168 L10.8497522,14.9977168 C10.8497522,14.9977168 11.0969204,14.9705841 11.2231062,14.8345487 C11.3392566,14.7096637 11.3355398,14.4751327 11.3355398,14.4751327 C11.3355398,14.4751327 11.3195575,13.3771858 11.8291327,13.2155044 C12.3314602,13.0562389 12.9765133,14.2766549 13.6602212,14.7459027 C14.1772301,15.1010442 14.5700973,15.023177 14.5700973,15.023177 L16.3982124,14.9977168 C16.3982124,14.9977168 17.3545487,14.9388053 16.9010973,14.1868938 C16.8639292,14.1253805 16.6370177,13.6306726 15.5418584,12.6141239 C14.3955929,11.5501858 14.5490973,11.7222743 15.9298938,9.88189381 C16.770823,8.7610885 17.1070088,8.07682301 17.0020088,7.78375221 C16.9018407,7.50461947 16.2833628,7.57839823 16.2833628,7.57839823 L14.2249912,7.59122124 C14.2249912,7.59122124 14.0724159,7.57040708 13.9592389,7.6380531 C13.8486637,7.70439823 13.7774867,7.8590177 13.7774867,7.8590177 C13.7774867,7.8590177 13.451708,8.72633628 13.0172124,9.46393805 C12.100646,11.020354 11.7341681,11.1024956 11.5843805,11.0058584 C11.2359292,10.7806195 11.3229027,10.101 11.3229027,9.61818584 C11.3229027,8.10990265 11.5516726,7.4810177 10.8774425,7.31822124 C10.6536903,7.26414159 10.4890354,7.22846018 9.91683186,7.22269912 C9.18238938,7.21507965 8.56075221,7.2249292 8.20876991,7.39738938 C7.97461062,7.5120531 7.79397345,7.76758407 7.90399115,7.78226549 C8.04002655,7.80047788 8.34815044,7.86533628 8.51150442,8.08778761 C8.72243363,8.37472566 8.715,9.01922124 8.715,9.01922124 C8.715,9.01922124 8.83616814,10.7947434 8.4319646,11.0153363 C8.15450442,11.1666106 7.77390265,10.8577434 6.95676106,9.44572566 C6.53806195,8.72243363 6.2219469,7.9229469 6.2219469,7.9229469 C6.2219469,7.9229469 6.16099115,7.77353097 6.05227434,7.69361947 C5.92032743,7.59679646 5.73597345,7.5659469 5.73597345,7.5659469 L3.78,7.57876991 C3.78,7.57876991 3.48637168,7.5869469 3.37858407,7.71461947 C3.28269027,7.82816814 3.3709646,8.0630708 3.3709646,8.0630708 C3.3709646,8.0630708 4.90229204,11.645708 6.63618584,13.4511504 C8.2260531,15.1064336 10.0314956,14.9977168 10.0314956,14.9977168 L10.0314956,14.9977168 Z" id="Shape" fill="#FFFFFF"></path>
                </g>
            </g>
        </g>
    </g>
</svg>